STARTFONT 2.1
COMMENT
COMMENT Converted from OpenType font "xuong_regular.otf" by "otf2bdf 3.0".
COMMENT
FONT -FreeType-Xuong-Bold-R-Normal--14-100-100-100-P-68-ISO10646-1
SIZE 10 100 100
FONTBOUNDINGBOX 15 17 -1 -2
STARTPROPERTIES 19
FOUNDRY "FreeType"
FAMILY_NAME "Xuong"
WEIGHT_NAME "Bold"
SLANT "R"
SETWIDTH_NAME "Normal"
ADD_STYLE_NAME ""
PIXEL_SIZE 14
POINT_SIZE 100
RESOLUTION_X 100
RESOLUTION_Y 100
SPACING "P"
AVERAGE_WIDTH 68
CHARSET_REGISTRY "ISO10646"
CHARSET_ENCODING "1"
FONT_ASCENT 12
FONT_DESCENT 2
COPYRIGHT "-FreeType-Xuong-Bold-R-Normal--14-100-100-100-P-68-ISO10646-1"
_OTF_FONTFILE "xuong_regular.otf"
_OTF_PSNAME "Xuong"
ENDPROPERTIES
CHARS 445
STARTCHAR 0000
ENCODING 0
SWIDTH 0 0
DWIDTH 0 0
BBX 0 0 0 0
BITMAP
ENDCHAR
STARTCHAR 000D
ENCODING 13
SWIDTH 216 0
DWIDTH 3 0
BBX 0 0 0 0
BITMAP
ENDCHAR
STARTCHAR 0020
ENCODING 32
SWIDTH 216 0
DWIDTH 3 0
BBX 0 0 0 0
BITMAP
ENDCHAR
STARTCHAR 0021
ENCODING 33
SWIDTH 144 0
DWIDTH 2 0
BBX 2 10 0 0
BITMAP
C0
C0
C0
C0
40
40
40
40
C0
C0
ENDCHAR
STARTCHAR 0022
ENCODING 34
SWIDTH 216 0
DWIDTH 3 0
BBX 4 4 0 6
BITMAP
F0
E0
A0
A0
ENDCHAR
STARTCHAR 0023
ENCODING 35
SWIDTH 720 0
DWIDTH 10 0
BBX 10 10 0 0
BITMAP
0D80
0900
0900
7FC0
1200
1200
FF80
3600
2400
2400
ENDCHAR
STARTCHAR 0024
ENCODING 36
SWIDTH 504 0
DWIDTH 7 0
BBX 6 12 1 -1
BITMAP
20
F8
FC
CC
E0
70
38
1C
8C
FC
FC
20
ENDCHAR
STARTCHAR 0025
ENCODING 37
SWIDTH 576 0
DWIDTH 8 0
BBX 7 10 1 0
BITMAP
E4
AC
E8
F8
10
30
20
6E
4A
CE
ENDCHAR
STARTCHAR 0026
ENCODING 38
SWIDTH 648 0
DWIDTH 9 0
BBX 9 10 1 0
BITMAP
7800
7C00
EC00
CC00
FC00
CD00
CF80
CF00
FF00
FB80
ENDCHAR
STARTCHAR 0027
ENCODING 39
SWIDTH 72 0
DWIDTH 1 0
BBX 2 4 0 6
BITMAP
C0
C0
80
80
ENDCHAR
STARTCHAR 0028
ENCODING 40
SWIDTH 216 0
DWIDTH 3 0
BBX 3 11 0 -1
BITMAP
60
40
C0
C0
C0
C0
C0
C0
40
60
20
ENDCHAR
STARTCHAR 0029
ENCODING 41
SWIDTH 216 0
DWIDTH 3 0
BBX 3 11 0 -1
BITMAP
C0
40
60
60
60
60
60
60
40
C0
80
ENDCHAR
STARTCHAR 002A
ENCODING 42
SWIDTH 360 0
DWIDTH 5 0
BBX 5 5 0 5
BITMAP
20
68
78
F8
28
ENDCHAR
STARTCHAR 002B
ENCODING 43
SWIDTH 360 0
DWIDTH 5 0
BBX 6 6 0 2
BITMAP
30
30
FC
FC
30
30
ENDCHAR
STARTCHAR 002C
ENCODING 44
SWIDTH 144 0
DWIDTH 2 0
BBX 2 3 0 -1
BITMAP
40
40
C0
ENDCHAR
STARTCHAR 002D
ENCODING 45
SWIDTH 360 0
DWIDTH 5 0
BBX 6 1 0 5
BITMAP
FC
ENDCHAR
STARTCHAR 002E
ENCODING 46
SWIDTH 144 0
DWIDTH 2 0
BBX 2 2 0 0
BITMAP
C0
C0
ENDCHAR
STARTCHAR 002F
ENCODING 47
SWIDTH 216 0
DWIDTH 3 0
BBX 4 11 0 -1
BITMAP
30
20
20
20
60
40
40
C0
C0
80
80
ENDCHAR
STARTCHAR 0030
ENCODING 48
SWIDTH 576 0
DWIDTH 8 0
BBX 7 10 1 0
BITMAP
7C
FC
CE
CE
CE
CE
CE
CE
FC
FC
ENDCHAR
STARTCHAR 0031
ENCODING 49
SWIDTH 360 0
DWIDTH 5 0
BBX 4 10 1 0
BITMAP
30
F0
F0
B0
30
30
30
30
30
30
ENDCHAR
STARTCHAR 0032
ENCODING 50
SWIDTH 504 0
DWIDTH 7 0
BBX 6 10 1 0
BITMAP
7C
FC
CC
0C
1C
38
70
E0
FC
FC
ENDCHAR
STARTCHAR 0033
ENCODING 51
SWIDTH 504 0
DWIDTH 7 0
BBX 6 10 1 0
BITMAP
FC
FC
0C
0C
7C
7C
0C
0C
FC
FC
ENDCHAR
STARTCHAR 0034
ENCODING 52
SWIDTH 576 0
DWIDTH 8 0
BBX 6 10 1 0
BITMAP
38
38
78
78
F8
D8
FC
FC
18
18
ENDCHAR
STARTCHAR 0035
ENCODING 53
SWIDTH 504 0
DWIDTH 7 0
BBX 6 10 1 0
BITMAP
FC
F8
C0
C0
FC
FC
1C
1C
FC
FC
ENDCHAR
STARTCHAR 0036
ENCODING 54
SWIDTH 504 0
DWIDTH 7 0
BBX 6 10 1 0
BITMAP
F8
FC
CC
C0
C0
FC
CC
CC
FC
FC
ENDCHAR
STARTCHAR 0037
ENCODING 55
SWIDTH 432 0
DWIDTH 6 0
BBX 6 10 0 0
BITMAP
FC
7C
0C
1C
18
18
38
38
30
30
ENDCHAR
STARTCHAR 0038
ENCODING 56
SWIDTH 576 0
DWIDTH 8 0
BBX 7 10 1 0
BITMAP
7C
FC
CE
CE
CE
FC
CE
CE
FE
FC
ENDCHAR
STARTCHAR 0039
ENCODING 57
SWIDTH 504 0
DWIDTH 7 0
BBX 6 10 1 0
BITMAP
FC
FC
CC
CC
FC
FC
0C
CC
FC
FC
ENDCHAR
STARTCHAR 003A
ENCODING 58
SWIDTH 144 0
DWIDTH 2 0
BBX 2 7 0 0
BITMAP
C0
C0
00
00
00
C0
C0
ENDCHAR
STARTCHAR 003B
ENCODING 59
SWIDTH 144 0
DWIDTH 2 0
BBX 2 8 0 -1
BITMAP
C0
C0
00
00
00
40
40
C0
ENDCHAR
STARTCHAR 003C
ENCODING 60
SWIDTH 360 0
DWIDTH 5 0
BBX 5 7 0 2
BITMAP
08
38
E0
C0
E0
38
08
ENDCHAR
STARTCHAR 003D
ENCODING 61
SWIDTH 360 0
DWIDTH 5 0
BBX 6 3 0 3
BITMAP
FC
00
FC
ENDCHAR
STARTCHAR 003E
ENCODING 62
SWIDTH 360 0
DWIDTH 5 0
BBX 5 7 0 2
BITMAP
C0
F0
38
08
38
F0
C0
ENDCHAR
STARTCHAR 003F
ENCODING 63
SWIDTH 504 0
DWIDTH 7 0
BBX 6 10 1 0
BITMAP
7C
FC
CC
1C
18
30
30
00
30
30
ENDCHAR
STARTCHAR 0040
ENCODING 64
SWIDTH 792 0
DWIDTH 11 0
BBX 10 12 1 -2
BITMAP
FF80
FFC0
9CC0
9CC0
94C0
96C0
B6C0
BEC0
A3C0
8000
FC00
FC00
ENDCHAR
STARTCHAR 0041
ENCODING 65
SWIDTH 576 0
DWIDTH 8 0
BBX 8 10 0 0
BITMAP
3C
3C
26
66
66
66
66
7F
E3
C3
ENDCHAR
STARTCHAR 0042
ENCODING 66
SWIDTH 576 0
DWIDTH 8 0
BBX 7 10 1 0
BITMAP
FC
FC
CE
CE
FC
FC
CE
CE
FC
FC
ENDCHAR
STARTCHAR 0043
ENCODING 67
SWIDTH 504 0
DWIDTH 7 0
BBX 6 10 1 0
BITMAP
F8
FC
CC
C0
C0
C0
C0
CC
FC
F8
ENDCHAR
STARTCHAR 0044
ENCODING 68
SWIDTH 576 0
DWIDTH 8 0
BBX 7 10 1 0
BITMAP
FC
FC
CE
CE
CE
CE
CE
CE
FC
FC
ENDCHAR
STARTCHAR 0045
ENCODING 69
SWIDTH 504 0
DWIDTH 7 0
BBX 6 10 1 0
BITMAP
F8
FC
CC
C0
F0
F0
C0
CC
FC
F8
ENDCHAR
STARTCHAR 0046
ENCODING 70
SWIDTH 504 0
DWIDTH 7 0
BBX 6 10 1 0
BITMAP
F8
F8
CC
C0
C0
F8
F8
C0
C0
C0
ENDCHAR
STARTCHAR 0047
ENCODING 71
SWIDTH 504 0
DWIDTH 7 0
BBX 6 10 1 0
BITMAP
F8
FC
CC
C0
DC
DC
DC
CC
FC
FC
ENDCHAR
STARTCHAR 0048
ENCODING 72
SWIDTH 576 0
DWIDTH 8 0
BBX 7 10 1 0
BITMAP
CE
CE
CE
CE
FE
FE
CE
CE
CE
CE
ENDCHAR
STARTCHAR 0049
ENCODING 73
SWIDTH 216 0
DWIDTH 3 0
BBX 2 10 1 0
BITMAP
C0
C0
C0
C0
C0
C0
C0
C0
C0
C0
ENDCHAR
STARTCHAR 004A
ENCODING 74
SWIDTH 504 0
DWIDTH 7 0
BBX 6 10 1 0
BITMAP
7C
7C
1C
1C
1C
1C
1C
DC
FC
FC
ENDCHAR
STARTCHAR 004B
ENCODING 75
SWIDTH 504 0
DWIDTH 7 0
BBX 6 10 1 0
BITMAP
CC
DC
DC
F8
F0
F0
F8
D8
DC
CC
ENDCHAR
STARTCHAR 004C
ENCODING 76
SWIDTH 360 0
DWIDTH 5 0
BBX 5 10 1 0
BITMAP
C0
C0
C0
C0
C0
C0
C0
C0
F8
F0
ENDCHAR
STARTCHAR 004D
ENCODING 77
SWIDTH 648 0
DWIDTH 9 0
BBX 8 10 1 0
BITMAP
66
EF
EF
EF
FB
FB
DB
DB
C3
C3
ENDCHAR
STARTCHAR 004E
ENCODING 78
SWIDTH 504 0
DWIDTH 7 0
BBX 6 10 1 0
BITMAP
4C
CC
EC
EC
FC
FC
DC
DC
CC
CC
ENDCHAR
STARTCHAR 004F
ENCODING 79
SWIDTH 576 0
DWIDTH 8 0
BBX 7 10 1 0
BITMAP
7C
FE
C6
C6
C6
C6
C6
C6
FE
FC
ENDCHAR
STARTCHAR 0050
ENCODING 80
SWIDTH 504 0
DWIDTH 7 0
BBX 6 10 1 0
BITMAP
F8
FC
CC
CC
CC
FC
F8
C0
C0
C0
ENDCHAR
STARTCHAR 0051
ENCODING 81
SWIDTH 648 0
DWIDTH 9 0
BBX 8 10 1 0
BITMAP
7C
FE
C6
C6
C6
C6
C6
C6
FF
FF
ENDCHAR
STARTCHAR 0052
ENCODING 82
SWIDTH 504 0
DWIDTH 7 0
BBX 6 10 1 0
BITMAP
F8
FC
CC
CC
FC
F8
D8
DC
CC
CC
ENDCHAR
STARTCHAR 0053
ENCODING 83
SWIDTH 504 0
DWIDTH 7 0
BBX 6 10 1 0
BITMAP
F8
FC
CC
E0
70
38
1C
8C
FC
FC
ENDCHAR
STARTCHAR 0054
ENCODING 84
SWIDTH 504 0
DWIDTH 7 0
BBX 7 10 0 0
BITMAP
7C
FE
DE
18
18
18
18
18
18
18
ENDCHAR
STARTCHAR 0055
ENCODING 85
SWIDTH 576 0
DWIDTH 8 0
BBX 7 10 1 0
BITMAP
C6
C6
C6
C6
C6
C6
C6
C6
FE
FC
ENDCHAR
STARTCHAR 0056
ENCODING 86
SWIDTH 576 0
DWIDTH 8 0
BBX 8 10 0 0
BITMAP
C3
C3
66
66
66
66
66
24
3C
3C
ENDCHAR
STARTCHAR 0057
ENCODING 87
SWIDTH 864 0
DWIDTH 12 0
BBX 11 10 1 0
BITMAP
C060
C0E0
C0C0
CCC0
CEC0
FEC0
7BC0
7B80
7380
7380
ENDCHAR
STARTCHAR 0058
ENCODING 88
SWIDTH 576 0
DWIDTH 8 0
BBX 7 10 1 0
BITMAP
C6
CE
EC
6C
78
7C
7C
EC
CE
C6
ENDCHAR
STARTCHAR 0059
ENCODING 89
SWIDTH 432 0
DWIDTH 6 0
BBX 6 10 0 0
BITMAP
CC
CC
6C
7C
78
38
30
30
30
30
ENDCHAR
STARTCHAR 005A
ENCODING 90
SWIDTH 504 0
DWIDTH 7 0
BBX 6 10 1 0
BITMAP
F8
FC
1C
18
38
70
60
E0
FC
FC
ENDCHAR
STARTCHAR 005B
ENCODING 91
SWIDTH 216 0
DWIDTH 3 0
BBX 3 11 0 -1
BITMAP
E0
C0
C0
C0
C0
C0
C0
C0
C0
E0
E0
ENDCHAR
STARTCHAR 005C
ENCODING 92
SWIDTH 216 0
DWIDTH 3 0
BBX 4 11 0 -1
BITMAP
80
C0
C0
40
40
60
60
20
20
30
30
ENDCHAR
STARTCHAR 005D
ENCODING 93
SWIDTH 216 0
DWIDTH 3 0
BBX 3 11 0 -1
BITMAP
E0
20
20
20
20
20
20
20
20
E0
E0
ENDCHAR
STARTCHAR 005E
ENCODING 94
SWIDTH 576 0
DWIDTH 8 0
BBX 7 5 1 5
BITMAP
30
78
48
CC
86
ENDCHAR
STARTCHAR 005F
ENCODING 95
SWIDTH 360 0
DWIDTH 5 0
BBX 6 1 0 0
BITMAP
FC
ENDCHAR
STARTCHAR 0060
ENCODING 96
SWIDTH 360 0
DWIDTH 5 0
BBX 5 2 0 10
BITMAP
C0
38
ENDCHAR
STARTCHAR 0061
ENCODING 97
SWIDTH 576 0
DWIDTH 8 0
BBX 8 10 0 0
BITMAP
3C
3C
26
66
66
66
66
7F
E3
C3
ENDCHAR
STARTCHAR 0062
ENCODING 98
SWIDTH 576 0
DWIDTH 8 0
BBX 7 10 1 0
BITMAP
FC
FC
CE
CE
FC
FC
CE
CE
FC
FC
ENDCHAR
STARTCHAR 0063
ENCODING 99
SWIDTH 504 0
DWIDTH 7 0
BBX 6 10 1 0
BITMAP
F8
FC
CC
C0
C0
C0
C0
CC
FC
F8
ENDCHAR
STARTCHAR 0064
ENCODING 100
SWIDTH 576 0
DWIDTH 8 0
BBX 7 10 1 0
BITMAP
FC
FC
CE
CE
CE
CE
CE
CE
FC
FC
ENDCHAR
STARTCHAR 0065
ENCODING 101
SWIDTH 504 0
DWIDTH 7 0
BBX 6 10 1 0
BITMAP
F8
FC
CC
C0
F0
F0
C0
CC
FC
F8
ENDCHAR
STARTCHAR 0066
ENCODING 102
SWIDTH 504 0
DWIDTH 7 0
BBX 6 10 1 0
BITMAP
F8
F8
CC
C0
C0
F8
F8
C0
C0
C0
ENDCHAR
STARTCHAR 0067
ENCODING 103
SWIDTH 504 0
DWIDTH 7 0
BBX 6 10 1 0
BITMAP
F8
FC
CC
C0
DC
DC
DC
CC
FC
FC
ENDCHAR
STARTCHAR 0068
ENCODING 104
SWIDTH 576 0
DWIDTH 8 0
BBX 7 10 1 0
BITMAP
CE
CE
CE
CE
FE
FE
CE
CE
CE
CE
ENDCHAR
STARTCHAR 0069
ENCODING 105
SWIDTH 216 0
DWIDTH 3 0
BBX 2 10 1 0
BITMAP
C0
C0
C0
C0
C0
C0
C0
C0
C0
C0
ENDCHAR
STARTCHAR 006A
ENCODING 106
SWIDTH 504 0
DWIDTH 7 0
BBX 6 10 1 0
BITMAP
7C
7C
1C
1C
1C
1C
1C
DC
FC
FC
ENDCHAR
STARTCHAR 006B
ENCODING 107
SWIDTH 504 0
DWIDTH 7 0
BBX 6 10 1 0
BITMAP
CC
DC
DC
F8
F0
F0
F8
D8
DC
CC
ENDCHAR
STARTCHAR 006C
ENCODING 108
SWIDTH 360 0
DWIDTH 5 0
BBX 5 10 1 0
BITMAP
C0
C0
C0
C0
C0
C0
C0
C0
F8
F0
ENDCHAR
STARTCHAR 006D
ENCODING 109
SWIDTH 648 0
DWIDTH 9 0
BBX 8 10 1 0
BITMAP
66
EF
EF
EF
FB
FB
DB
DB
C3
C3
ENDCHAR
STARTCHAR 006E
ENCODING 110
SWIDTH 504 0
DWIDTH 7 0
BBX 6 10 1 0
BITMAP
4C
CC
EC
EC
FC
FC
DC
DC
CC
CC
ENDCHAR
STARTCHAR 006F
ENCODING 111
SWIDTH 576 0
DWIDTH 8 0
BBX 7 10 1 0
BITMAP
7C
FE
C6
C6
C6
C6
C6
C6
FE
FC
ENDCHAR
STARTCHAR 0070
ENCODING 112
SWIDTH 504 0
DWIDTH 7 0
BBX 6 10 1 0
BITMAP
F8
FC
CC
CC
CC
FC
F8
C0
C0
C0
ENDCHAR
STARTCHAR 0071
ENCODING 113
SWIDTH 648 0
DWIDTH 9 0
BBX 8 10 1 0
BITMAP
7C
FE
C6
C6
C6
C6
C6
C6
FF
FF
ENDCHAR
STARTCHAR 0072
ENCODING 114
SWIDTH 504 0
DWIDTH 7 0
BBX 6 10 1 0
BITMAP
F8
FC
CC
CC
FC
F8
D8
DC
CC
CC
ENDCHAR
STARTCHAR 0073
ENCODING 115
SWIDTH 504 0
DWIDTH 7 0
BBX 6 10 1 0
BITMAP
F8
FC
CC
E0
70
38
1C
8C
FC
FC
ENDCHAR
STARTCHAR 0074
ENCODING 116
SWIDTH 504 0
DWIDTH 7 0
BBX 7 10 0 0
BITMAP
7C
FE
DE
18
18
18
18
18
18
18
ENDCHAR
STARTCHAR 0075
ENCODING 117
SWIDTH 576 0
DWIDTH 8 0
BBX 7 10 1 0
BITMAP
C6
C6
C6
C6
C6
C6
C6
C6
FE
FC
ENDCHAR
STARTCHAR 0076
ENCODING 118
SWIDTH 576 0
DWIDTH 8 0
BBX 8 10 0 0
BITMAP
C3
C3
66
66
66
66
66
24
3C
3C
ENDCHAR
STARTCHAR 0077
ENCODING 119
SWIDTH 864 0
DWIDTH 12 0
BBX 11 10 1 0
BITMAP
C060
C0E0
C0C0
CCC0
CEC0
FEC0
7BC0
7B80
7380
7380
ENDCHAR
STARTCHAR 0078
ENCODING 120
SWIDTH 576 0
DWIDTH 8 0
BBX 7 10 1 0
BITMAP
C6
CE
EC
6C
78
7C
7C
EC
CE
C6
ENDCHAR
STARTCHAR 0079
ENCODING 121
SWIDTH 432 0
DWIDTH 6 0
BBX 6 10 0 0
BITMAP
CC
CC
6C
7C
78
38
30
30
30
30
ENDCHAR
STARTCHAR 007A
ENCODING 122
SWIDTH 504 0
DWIDTH 7 0
BBX 6 10 1 0
BITMAP
F8
FC
1C
18
38
70
60
E0
FC
FC
ENDCHAR
STARTCHAR 007B
ENCODING 123
SWIDTH 288 0
DWIDTH 4 0
BBX 4 11 0 -1
BITMAP
70
60
60
60
40
C0
60
60
60
70
70
ENDCHAR
STARTCHAR 007C
ENCODING 124
SWIDTH 72 0
DWIDTH 1 0
BBX 2 11 0 -1
BITMAP
C0
C0
C0
C0
C0
C0
C0
C0
C0
C0
C0
ENDCHAR
STARTCHAR 007D
ENCODING 125
SWIDTH 288 0
DWIDTH 4 0
BBX 4 11 0 -1
BITMAP
E0
60
60
60
20
30
60
60
60
E0
E0
ENDCHAR
STARTCHAR 007E
ENCODING 126
SWIDTH 432 0
DWIDTH 6 0
BBX 6 2 0 4
BITMAP
20
DC
ENDCHAR
STARTCHAR 00A1
ENCODING 161
SWIDTH 144 0
DWIDTH 2 0
BBX 2 10 0 0
BITMAP
C0
C0
00
40
40
40
C0
C0
C0
C0
ENDCHAR
STARTCHAR 00A2
ENCODING 162
SWIDTH 504 0
DWIDTH 7 0
BBX 6 12 1 -1
BITMAP
20
F8
FC
CC
C0
C0
C0
C0
CC
FC
F8
20
ENDCHAR
STARTCHAR 00A3
ENCODING 163
SWIDTH 432 0
DWIDTH 6 0
BBX 5 10 1 0
BITMAP
F8
F8
D8
C0
F8
60
60
C0
F8
F8
ENDCHAR
STARTCHAR 00A4
ENCODING 164
SWIDTH 288 0
DWIDTH 4 0
BBX 4 4 0 3
BITMAP
90
70
50
F0
ENDCHAR
STARTCHAR 00A5
ENCODING 165
SWIDTH 432 0
DWIDTH 6 0
BBX 6 10 0 0
BITMAP
CC
CC
6C
7C
78
7C
7C
7C
30
30
ENDCHAR
STARTCHAR 00A6
ENCODING 166
SWIDTH 72 0
DWIDTH 1 0
BBX 2 11 0 -1
BITMAP
C0
C0
C0
C0
C0
00
C0
C0
C0
C0
C0
ENDCHAR
STARTCHAR 00A7
ENCODING 167
SWIDTH 432 0
DWIDTH 6 0
BBX 4 10 1 0
BITMAP
F0
F0
C0
E0
F0
D0
70
30
F0
F0
ENDCHAR
STARTCHAR 00A8
ENCODING 168
SWIDTH 288 0
DWIDTH 4 0
BBX 4 2 0 10
BITMAP
D0
D0
ENDCHAR
STARTCHAR 00A9
ENCODING 169
SWIDTH 720 0
DWIDTH 10 0
BBX 10 11 0 -1
BITMAP
FFC0
C0C0
DEC0
DEC0
D0C0
D0C0
D2C0
DEC0
C0C0
FFC0
7F80
ENDCHAR
STARTCHAR 00AB
ENCODING 171
SWIDTH 432 0
DWIDTH 6 0
BBX 6 5 0 2
BITMAP
24
68
D8
6C
24
ENDCHAR
STARTCHAR 00AC
ENCODING 172
SWIDTH 504 0
DWIDTH 7 0
BBX 8 3 0 2
BITMAP
FF
03
03
ENDCHAR
STARTCHAR 00AE
ENCODING 174
SWIDTH 360 0
DWIDTH 5 0
BBX 5 6 0 4
BITMAP
F8
88
F8
E8
88
F8
ENDCHAR
STARTCHAR 00AF
ENCODING 175
SWIDTH 360 0
DWIDTH 5 0
BBX 6 2 0 10
BITMAP
FC
FC
ENDCHAR
STARTCHAR 00B0
ENCODING 176
SWIDTH 216 0
DWIDTH 3 0
BBX 3 3 0 7
BITMAP
E0
A0
E0
ENDCHAR
STARTCHAR 00B1
ENCODING 177
SWIDTH 360 0
DWIDTH 5 0
BBX 6 8 0 0
BITMAP
30
30
FC
FC
30
30
FC
FC
ENDCHAR
STARTCHAR 00B4
ENCODING 180
SWIDTH 360 0
DWIDTH 5 0
BBX 5 2 0 10
BITMAP
38
C0
ENDCHAR
STARTCHAR 00B6
ENCODING 182
SWIDTH 360 0
DWIDTH 5 0
BBX 4 10 1 0
BITMAP
E0
F0
F0
F0
F0
30
30
30
30
30
ENDCHAR
STARTCHAR 00B7
ENCODING 183
SWIDTH 144 0
DWIDTH 2 0
BBX 2 2 0 4
BITMAP
C0
C0
ENDCHAR
STARTCHAR 00B8
ENCODING 184
SWIDTH 144 0
DWIDTH 2 0
BBX 1 2 1 -2
BITMAP
80
80
ENDCHAR
STARTCHAR 00BB
ENCODING 187
SWIDTH 432 0
DWIDTH 6 0
BBX 6 5 0 2
BITMAP
D0
6C
24
6C
90
ENDCHAR
STARTCHAR 00BC
ENCODING 188
SWIDTH 576 0
DWIDTH 8 0
BBX 7 10 1 0
BITMAP
C4
C8
48
50
50
3C
2C
7C
5E
C4
ENDCHAR
STARTCHAR 00BD
ENCODING 189
SWIDTH 576 0
DWIDTH 8 0
BBX 7 10 1 0
BITMAP
C4
C8
48
50
50
3E
2A
66
4C
CE
ENDCHAR
STARTCHAR 00BE
ENCODING 190
SWIDTH 576 0
DWIDTH 8 0
BBX 7 10 1 0
BITMAP
E6
24
EC
28
F8
16
36
2A
2E
42
ENDCHAR
STARTCHAR 00BF
ENCODING 191
SWIDTH 504 0
DWIDTH 7 0
BBX 6 10 1 0
BITMAP
70
70
00
70
70
60
C0
CC
FC
F8
ENDCHAR
STARTCHAR 00C0
ENCODING 192
SWIDTH 576 0
DWIDTH 8 0
BBX 8 12 0 0
BITMAP
60
1C
3C
3C
26
66
66
66
66
7F
E3
C3
ENDCHAR
STARTCHAR 00C1
ENCODING 193
SWIDTH 576 0
DWIDTH 8 0
BBX 8 12 0 0
BITMAP
1C
70
3C
3C
26
66
66
66
66
7F
E3
C3
ENDCHAR
STARTCHAR 00C2
ENCODING 194
SWIDTH 576 0
DWIDTH 8 0
BBX 8 12 0 0
BITMAP
3C
42
3C
3C
26
66
66
66
66
7F
E3
C3
ENDCHAR
STARTCHAR 00C3
ENCODING 195
SWIDTH 576 0
DWIDTH 8 0
BBX 8 12 0 0
BITMAP
3A
44
3C
3C
26
66
66
66
66
7F
E3
C3
ENDCHAR
STARTCHAR 00C4
ENCODING 196
SWIDTH 576 0
DWIDTH 8 0
BBX 8 12 0 0
BITMAP
34
34
3C
3C
26
66
66
66
66
7F
E3
C3
ENDCHAR
STARTCHAR 00C5
ENCODING 197
SWIDTH 576 0
DWIDTH 8 0
BBX 8 12 0 0
BITMAP
18
18
3C
3C
26
66
66
66
66
7F
E3
C3
ENDCHAR
STARTCHAR 00C6
ENCODING 198
SWIDTH 792 0
DWIDTH 11 0
BBX 11 10 0 0
BITMAP
3FC0
3FE0
2660
6600
6780
6780
6600
7E60
E7E0
C7C0
ENDCHAR
STARTCHAR 00C7
ENCODING 199
SWIDTH 504 0
DWIDTH 7 0
BBX 6 12 1 -2
BITMAP
F8
FC
CC
C0
C0
C0
C0
CC
FC
F8
20
20
ENDCHAR
STARTCHAR 00C8
ENCODING 200
SWIDTH 504 0
DWIDTH 7 0
BBX 6 12 1 0
BITMAP
C0
38
F8
FC
CC
C0
F0
F0
C0
CC
FC
F8
ENDCHAR
STARTCHAR 00C9
ENCODING 201
SWIDTH 504 0
DWIDTH 7 0
BBX 6 12 1 0
BITMAP
38
C0
F8
FC
CC
C0
F0
F0
C0
CC
FC
F8
ENDCHAR
STARTCHAR 00CA
ENCODING 202
SWIDTH 504 0
DWIDTH 7 0
BBX 6 12 1 0
BITMAP
F8
88
F8
FC
CC
C0
F0
F0
C0
CC
FC
F8
ENDCHAR
STARTCHAR 00CB
ENCODING 203
SWIDTH 504 0
DWIDTH 7 0
BBX 6 12 1 0
BITMAP
50
50
F8
FC
CC
C0
F0
F0
C0
CC
FC
F8
ENDCHAR
STARTCHAR 00CC
ENCODING 204
SWIDTH 216 0
DWIDTH 3 0
BBX 5 12 -1 0
BITMAP
C0
38
30
30
30
30
30
30
30
30
30
30
ENDCHAR
STARTCHAR 00CD
ENCODING 205
SWIDTH 216 0
DWIDTH 3 0
BBX 5 12 -1 0
BITMAP
38
C0
30
30
30
30
30
30
30
30
30
30
ENDCHAR
STARTCHAR 00CE
ENCODING 206
SWIDTH 432 0
DWIDTH 6 0
BBX 5 12 1 0
BITMAP
F8
88
60
60
60
60
60
60
60
60
60
60
ENDCHAR
STARTCHAR 00CF
ENCODING 207
SWIDTH 216 0
DWIDTH 3 0
BBX 3 12 0 0
BITMAP
A0
A0
60
60
60
60
60
60
60
60
60
60
ENDCHAR
STARTCHAR 00D0
ENCODING 208
SWIDTH 576 0
DWIDTH 8 0
BBX 8 10 0 0
BITMAP
7E
7E
67
67
F7
F7
67
67
7E
7E
ENDCHAR
STARTCHAR 00D1
ENCODING 209
SWIDTH 504 0
DWIDTH 7 0
BBX 6 12 1 0
BITMAP
74
88
4C
CC
EC
EC
FC
FC
DC
DC
CC
CC
ENDCHAR
STARTCHAR 00D2
ENCODING 210
SWIDTH 576 0
DWIDTH 8 0
BBX 7 12 1 0
BITMAP
60
1C
7C
FE
C6
C6
C6
C6
C6
C6
FE
FC
ENDCHAR
STARTCHAR 00D3
ENCODING 211
SWIDTH 576 0
DWIDTH 8 0
BBX 7 12 1 0
BITMAP
1C
60
7C
FE
C6
C6
C6
C6
C6
C6
FE
FC
ENDCHAR
STARTCHAR 00D4
ENCODING 212
SWIDTH 576 0
DWIDTH 8 0
BBX 7 12 1 0
BITMAP
7C
C4
7C
FE
C6
C6
C6
C6
C6
C6
FE
FC
ENDCHAR
STARTCHAR 00D5
ENCODING 213
SWIDTH 576 0
DWIDTH 8 0
BBX 7 12 1 0
BITMAP
74
88
7C
FE
C6
C6
C6
C6
C6
C6
FE
FC
ENDCHAR
STARTCHAR 00D6
ENCODING 214
SWIDTH 576 0
DWIDTH 8 0
BBX 7 12 1 0
BITMAP
68
68
7C
FE
C6
C6
C6
C6
C6
C6
FE
FC
ENDCHAR
STARTCHAR 00D7
ENCODING 215
SWIDTH 360 0
DWIDTH 5 0
BBX 5 5 0 2
BITMAP
48
78
30
F8
08
ENDCHAR
STARTCHAR 00D8
ENCODING 216
SWIDTH 576 0
DWIDTH 8 0
BBX 7 12 1 -1
BITMAP
06
7C
FE
CE
DE
D6
F6
E6
E6
FE
FC
C0
ENDCHAR
STARTCHAR 00D9
ENCODING 217
SWIDTH 576 0
DWIDTH 8 0
BBX 7 12 1 0
BITMAP
60
1C
C6
C6
C6
C6
C6
C6
C6
C6
FE
FC
ENDCHAR
STARTCHAR 00DA
ENCODING 218
SWIDTH 576 0
DWIDTH 8 0
BBX 7 12 1 0
BITMAP
1C
60
C6
C6
C6
C6
C6
C6
C6
C6
FE
FC
ENDCHAR
STARTCHAR 00DB
ENCODING 219
SWIDTH 576 0
DWIDTH 8 0
BBX 7 12 1 0
BITMAP
7C
C4
C6
C6
C6
C6
C6
C6
C6
C6
FE
FC
ENDCHAR
STARTCHAR 00DC
ENCODING 220
SWIDTH 576 0
DWIDTH 8 0
BBX 7 12 1 0
BITMAP
28
28
C6
C6
C6
C6
C6
C6
C6
C6
FE
FC
ENDCHAR
STARTCHAR 00DD
ENCODING 221
SWIDTH 432 0
DWIDTH 6 0
BBX 6 12 0 0
BITMAP
1C
60
CC
CC
6C
7C
78
38
30
30
30
30
ENDCHAR
STARTCHAR 00DE
ENCODING 222
SWIDTH 504 0
DWIDTH 7 0
BBX 6 11 1 0
BITMAP
C0
F8
FC
CC
CC
CC
FC
F8
C0
C0
C0
ENDCHAR
STARTCHAR 00DF
ENCODING 223
SWIDTH 576 0
DWIDTH 8 0
BBX 7 10 1 0
BITMAP
7C
FC
CE
CE
FC
FC
CE
CE
FC
FC
ENDCHAR
STARTCHAR 00E0
ENCODING 224
SWIDTH 576 0
DWIDTH 8 0
BBX 8 12 0 0
BITMAP
60
1C
3C
3C
26
66
66
66
66
7F
E3
C3
ENDCHAR
STARTCHAR 00E1
ENCODING 225
SWIDTH 576 0
DWIDTH 8 0
BBX 8 12 0 0
BITMAP
1C
70
3C
3C
26
66
66
66
66
7F
E3
C3
ENDCHAR
STARTCHAR 00E2
ENCODING 226
SWIDTH 576 0
DWIDTH 8 0
BBX 8 12 0 0
BITMAP
3C
42
3C
3C
26
66
66
66
66
7F
E3
C3
ENDCHAR
STARTCHAR 00E3
ENCODING 227
SWIDTH 576 0
DWIDTH 8 0
BBX 8 12 0 0
BITMAP
3A
44
3C
3C
26
66
66
66
66
7F
E3
C3
ENDCHAR
STARTCHAR 00E4
ENCODING 228
SWIDTH 576 0
DWIDTH 8 0
BBX 8 12 0 0
BITMAP
34
34
3C
3C
26
66
66
66
66
7F
E3
C3
ENDCHAR
STARTCHAR 00E5
ENCODING 229
SWIDTH 576 0
DWIDTH 8 0
BBX 8 12 0 0
BITMAP
18
18
3C
3C
26
66
66
66
66
7F
E3
C3
ENDCHAR
STARTCHAR 00E6
ENCODING 230
SWIDTH 792 0
DWIDTH 11 0
BBX 11 10 0 0
BITMAP
3FC0
3FE0
2660
6600
6780
6780
6600
7E60
E7E0
C7C0
ENDCHAR
STARTCHAR 00E7
ENCODING 231
SWIDTH 504 0
DWIDTH 7 0
BBX 6 12 1 -2
BITMAP
F8
FC
CC
C0
C0
C0
C0
CC
FC
F8
20
20
ENDCHAR
STARTCHAR 00E8
ENCODING 232
SWIDTH 504 0
DWIDTH 7 0
BBX 6 12 1 0
BITMAP
C0
38
F8
FC
CC
C0
F0
F0
C0
CC
FC
F8
ENDCHAR
STARTCHAR 00E9
ENCODING 233
SWIDTH 504 0
DWIDTH 7 0
BBX 6 12 1 0
BITMAP
38
C0
F8
FC
CC
C0
F0
F0
C0
CC
FC
F8
ENDCHAR
STARTCHAR 00EA
ENCODING 234
SWIDTH 504 0
DWIDTH 7 0
BBX 6 12 1 0
BITMAP
F8
88
F8
FC
CC
C0
F0
F0
C0
CC
FC
F8
ENDCHAR
STARTCHAR 00EB
ENCODING 235
SWIDTH 504 0
DWIDTH 7 0
BBX 6 12 1 0
BITMAP
50
50
F8
FC
CC
C0
F0
F0
C0
CC
FC
F8
ENDCHAR
STARTCHAR 00EC
ENCODING 236
SWIDTH 216 0
DWIDTH 3 0
BBX 5 12 -1 0
BITMAP
C0
38
30
30
30
30
30
30
30
30
30
30
ENDCHAR
STARTCHAR 00ED
ENCODING 237
SWIDTH 216 0
DWIDTH 3 0
BBX 5 12 -1 0
BITMAP
38
C0
30
30
30
30
30
30
30
30
30
30
ENDCHAR
STARTCHAR 00EE
ENCODING 238
SWIDTH 432 0
DWIDTH 6 0
BBX 5 12 1 0
BITMAP
F8
88
70
70
70
70
70
70
70
70
70
70
ENDCHAR
STARTCHAR 00EF
ENCODING 239
SWIDTH 216 0
DWIDTH 3 0
BBX 3 12 0 0
BITMAP
A0
A0
60
60
60
60
60
60
60
60
60
60
ENDCHAR
STARTCHAR 00F0
ENCODING 240
SWIDTH 576 0
DWIDTH 8 0
BBX 8 10 0 0
BITMAP
7E
7E
67
67
F7
F7
67
67
7E
7E
ENDCHAR
STARTCHAR 00F1
ENCODING 241
SWIDTH 504 0
DWIDTH 7 0
BBX 6 12 1 0
BITMAP
74
88
4C
CC
EC
EC
FC
FC
DC
DC
CC
CC
ENDCHAR
STARTCHAR 00F2
ENCODING 242
SWIDTH 576 0
DWIDTH 8 0
BBX 7 12 1 0
BITMAP
60
3C
7C
FE
C6
C6
C6
C6
C6
C6
FE
FC
ENDCHAR
STARTCHAR 00F3
ENCODING 243
SWIDTH 576 0
DWIDTH 8 0
BBX 7 12 1 0
BITMAP
1C
60
7C
FE
C6
C6
C6
C6
C6
C6
FE
FC
ENDCHAR
STARTCHAR 00F4
ENCODING 244
SWIDTH 576 0
DWIDTH 8 0
BBX 7 12 1 0
BITMAP
7C
C4
7C
FE
C6
C6
C6
C6
C6
C6
FE
FC
ENDCHAR
STARTCHAR 00F5
ENCODING 245
SWIDTH 576 0
DWIDTH 8 0
BBX 7 12 1 0
BITMAP
74
88
7C
FE
C6
C6
C6
C6
C6
C6
FE
FC
ENDCHAR
STARTCHAR 00F6
ENCODING 246
SWIDTH 576 0
DWIDTH 8 0
BBX 7 12 1 0
BITMAP
68
68
7C
FE
C6
C6
C6
C6
C6
C6
FE
FC
ENDCHAR
STARTCHAR 00F7
ENCODING 247
SWIDTH 360 0
DWIDTH 5 0
BBX 6 6 0 2
BITMAP
30
30
FC
FC
30
30
ENDCHAR
STARTCHAR 00F8
ENCODING 248
SWIDTH 576 0
DWIDTH 8 0
BBX 7 12 1 -1
BITMAP
06
7C
FE
CE
DE
D6
F6
E6
E6
FE
FC
C0
ENDCHAR
STARTCHAR 00F9
ENCODING 249
SWIDTH 576 0
DWIDTH 8 0
BBX 7 12 1 0
BITMAP
60
1C
C6
C6
C6
C6
C6
C6
C6
C6
FE
FC
ENDCHAR
STARTCHAR 00FA
ENCODING 250
SWIDTH 576 0
DWIDTH 8 0
BBX 7 12 1 0
BITMAP
1C
60
C6
C6
C6
C6
C6
C6
C6
C6
FE
FC
ENDCHAR
STARTCHAR 00FB
ENCODING 251
SWIDTH 576 0
DWIDTH 8 0
BBX 7 12 1 0
BITMAP
7C
C4
C6
C6
C6
C6
C6
C6
C6
C6
FE
FC
ENDCHAR
STARTCHAR 00FC
ENCODING 252
SWIDTH 576 0
DWIDTH 8 0
BBX 7 12 1 0
BITMAP
68
68
C6
C6
C6
C6
C6
C6
C6
C6
FE
FC
ENDCHAR
STARTCHAR 00FD
ENCODING 253
SWIDTH 432 0
DWIDTH 6 0
BBX 6 12 0 0
BITMAP
1C
60
CC
CC
6C
7C
78
38
30
30
30
30
ENDCHAR
STARTCHAR 00FE
ENCODING 254
SWIDTH 504 0
DWIDTH 7 0
BBX 6 11 1 0
BITMAP
C0
F8
FC
CC
CC
CC
FC
F8
C0
C0
C0
ENDCHAR
STARTCHAR 00FF
ENCODING 255
SWIDTH 432 0
DWIDTH 6 0
BBX 6 12 0 0
BITMAP
68
68
CC
CC
6C
7C
78
38
30
30
30
30
ENDCHAR
STARTCHAR 0100
ENCODING 256
SWIDTH 576 0
DWIDTH 8 0
BBX 8 12 0 0
BITMAP
7E
7E
3C
3C
26
66
66
66
66
7F
E3
C3
ENDCHAR
STARTCHAR 0101
ENCODING 257
SWIDTH 576 0
DWIDTH 8 0
BBX 8 12 0 0
BITMAP
7E
7E
3C
3C
26
66
66
66
66
7F
E3
C3
ENDCHAR
STARTCHAR 0102
ENCODING 258
SWIDTH 576 0
DWIDTH 8 0
BBX 8 12 0 0
BITMAP
66
3C
3C
3C
26
66
66
66
66
7F
E3
C3
ENDCHAR
STARTCHAR 0103
ENCODING 259
SWIDTH 576 0
DWIDTH 8 0
BBX 8 12 0 0
BITMAP
66
3C
3C
3C
26
66
66
66
66
7F
E3
C3
ENDCHAR
STARTCHAR 0104
ENCODING 260
SWIDTH 576 0
DWIDTH 8 0
BBX 9 12 0 -2
BITMAP
3C00
3C00
2600
6600
6600
6600
6600
7F00
E300
C300
0100
0380
ENDCHAR
STARTCHAR 0105
ENCODING 261
SWIDTH 576 0
DWIDTH 8 0
BBX 9 12 0 -2
BITMAP
3C00
3C00
2600
6600
6600
6600
6600
7F00
E300
C300
0100
0380
ENDCHAR
STARTCHAR 0106
ENCODING 262
SWIDTH 504 0
DWIDTH 7 0
BBX 6 12 1 0
BITMAP
38
C0
F8
FC
CC
C0
C0
C0
C0
CC
FC
F8
ENDCHAR
STARTCHAR 0107
ENCODING 263
SWIDTH 504 0
DWIDTH 7 0
BBX 6 12 1 0
BITMAP
38
C0
F8
FC
CC
C0
C0
C0
C0
CC
FC
F8
ENDCHAR
STARTCHAR 0108
ENCODING 264
SWIDTH 504 0
DWIDTH 7 0
BBX 6 12 1 0
BITMAP
F8
88
F8
FC
CC
C0
C0
C0
C0
CC
FC
F8
ENDCHAR
STARTCHAR 0109
ENCODING 265
SWIDTH 504 0
DWIDTH 7 0
BBX 6 12 1 0
BITMAP
F8
88
F8
FC
CC
C0
C0
C0
C0
CC
FC
F8
ENDCHAR
STARTCHAR 010A
ENCODING 266
SWIDTH 504 0
DWIDTH 7 0
BBX 6 12 1 0
BITMAP
30
30
F8
FC
CC
C0
C0
C0
C0
CC
FC
F8
ENDCHAR
STARTCHAR 010B
ENCODING 267
SWIDTH 504 0
DWIDTH 7 0
BBX 6 12 1 0
BITMAP
30
30
F8
FC
CC
C0
C0
C0
C0
CC
FC
F8
ENDCHAR
STARTCHAR 010C
ENCODING 268
SWIDTH 504 0
DWIDTH 7 0
BBX 6 12 1 0
BITMAP
50
70
F8
FC
CC
C0
C0
C0
C0
CC
FC
F8
ENDCHAR
STARTCHAR 010D
ENCODING 269
SWIDTH 504 0
DWIDTH 7 0
BBX 6 12 1 0
BITMAP
50
70
F8
FC
CC
C0
C0
C0
C0
CC
FC
F8
ENDCHAR
STARTCHAR 010E
ENCODING 270
SWIDTH 576 0
DWIDTH 8 0
BBX 7 12 1 0
BITMAP
48
30
FC
FC
CE
CE
CE
CE
CE
CE
FC
FC
ENDCHAR
STARTCHAR 010F
ENCODING 271
SWIDTH 720 0
DWIDTH 10 0
BBX 9 10 1 0
BITMAP
FC80
FC80
CE80
CF00
CE00
CE00
CE00
CE00
FC00
FC00
ENDCHAR
STARTCHAR 0110
ENCODING 272
SWIDTH 576 0
DWIDTH 8 0
BBX 8 10 0 0
BITMAP
7E
7E
67
67
F7
F7
67
67
7E
7E
ENDCHAR
STARTCHAR 0111
ENCODING 273
SWIDTH 576 0
DWIDTH 8 0
BBX 8 10 0 0
BITMAP
7E
7E
67
67
F7
F7
67
67
7E
7E
ENDCHAR
STARTCHAR 0112
ENCODING 274
SWIDTH 504 0
DWIDTH 7 0
BBX 6 12 1 0
BITMAP
F8
F8
F8
FC
CC
C0
F0
F0
C0
CC
FC
F8
ENDCHAR
STARTCHAR 0113
ENCODING 275
SWIDTH 504 0
DWIDTH 7 0
BBX 6 12 1 0
BITMAP
F8
F8
F8
FC
CC
C0
F0
F0
C0
CC
FC
F8
ENDCHAR
STARTCHAR 0116
ENCODING 278
SWIDTH 504 0
DWIDTH 7 0
BBX 6 12 1 0
BITMAP
20
20
F8
FC
CC
C0
F0
F0
C0
CC
FC
F8
ENDCHAR
STARTCHAR 0117
ENCODING 279
SWIDTH 504 0
DWIDTH 7 0
BBX 6 12 1 0
BITMAP
20
20
F8
FC
CC
C0
F0
F0
C0
CC
FC
F8
ENDCHAR
STARTCHAR 0118
ENCODING 280
SWIDTH 504 0
DWIDTH 7 0
BBX 6 12 1 -2
BITMAP
F8
FC
CC
C0
F0
F0
C0
CC
FC
F8
20
70
ENDCHAR
STARTCHAR 0119
ENCODING 281
SWIDTH 504 0
DWIDTH 7 0
BBX 6 12 1 -2
BITMAP
F8
FC
CC
C0
F0
F0
C0
CC
FC
F8
20
70
ENDCHAR
STARTCHAR 011C
ENCODING 284
SWIDTH 504 0
DWIDTH 7 0
BBX 6 12 1 0
BITMAP
78
8C
F8
FC
CC
C0
DC
DC
DC
CC
FC
FC
ENDCHAR
STARTCHAR 011D
ENCODING 285
SWIDTH 504 0
DWIDTH 7 0
BBX 6 12 1 0
BITMAP
78
8C
F8
FC
CC
C0
DC
DC
DC
CC
FC
FC
ENDCHAR
STARTCHAR 011E
ENCODING 286
SWIDTH 504 0
DWIDTH 7 0
BBX 6 12 1 0
BITMAP
8C
78
F8
FC
CC
C0
DC
DC
DC
CC
FC
FC
ENDCHAR
STARTCHAR 011F
ENCODING 287
SWIDTH 504 0
DWIDTH 7 0
BBX 6 12 1 0
BITMAP
8C
78
F8
FC
CC
C0
DC
DC
DC
CC
FC
FC
ENDCHAR
STARTCHAR 0120
ENCODING 288
SWIDTH 504 0
DWIDTH 7 0
BBX 6 12 1 0
BITMAP
30
30
F8
FC
CC
C0
DC
DC
DC
CC
FC
FC
ENDCHAR
STARTCHAR 0121
ENCODING 289
SWIDTH 504 0
DWIDTH 7 0
BBX 6 12 1 0
BITMAP
30
30
F8
FC
CC
C0
DC
DC
DC
CC
FC
FC
ENDCHAR
STARTCHAR 0122
ENCODING 290
SWIDTH 504 0
DWIDTH 7 0
BBX 6 12 1 -2
BITMAP
F8
FC
CC
C0
DC
DC
DC
CC
FC
FC
20
20
ENDCHAR
STARTCHAR 0123
ENCODING 291
SWIDTH 504 0
DWIDTH 7 0
BBX 6 12 1 -2
BITMAP
F8
FC
CC
C0
DC
DC
DC
CC
FC
FC
20
20
ENDCHAR
STARTCHAR 0124
ENCODING 292
SWIDTH 576 0
DWIDTH 8 0
BBX 7 12 1 0
BITMAP
78
84
CE
CE
CE
CE
FE
FE
CE
CE
CE
CE
ENDCHAR
STARTCHAR 0125
ENCODING 293
SWIDTH 576 0
DWIDTH 8 0
BBX 7 12 1 0
BITMAP
78
84
CE
CE
CE
CE
FE
FE
CE
CE
CE
CE
ENDCHAR
STARTCHAR 0126
ENCODING 294
SWIDTH 576 0
DWIDTH 8 0
BBX 10 10 -1 0
BITMAP
3380
FFC0
FFC0
3380
3F80
3F80
3380
3380
3380
3380
ENDCHAR
STARTCHAR 0127
ENCODING 295
SWIDTH 576 0
DWIDTH 8 0
BBX 10 10 -1 0
BITMAP
3380
FFC0
FFC0
3380
3F80
3F80
3380
3380
3380
3380
ENDCHAR
STARTCHAR 0128
ENCODING 296
SWIDTH 216 0
DWIDTH 3 0
BBX 5 12 -1 0
BITMAP
F0
98
30
30
30
30
30
30
30
30
30
30
ENDCHAR
STARTCHAR 0129
ENCODING 297
SWIDTH 216 0
DWIDTH 3 0
BBX 5 12 -1 0
BITMAP
F0
98
30
30
30
30
30
30
30
30
30
30
ENDCHAR
STARTCHAR 012A
ENCODING 298
SWIDTH 216 0
DWIDTH 3 0
BBX 5 12 -1 0
BITMAP
F8
F8
30
30
30
30
30
30
30
30
30
30
ENDCHAR
STARTCHAR 012B
ENCODING 299
SWIDTH 216 0
DWIDTH 3 0
BBX 5 12 -1 0
BITMAP
F8
F8
30
30
30
30
30
30
30
30
30
30
ENDCHAR
STARTCHAR 012E
ENCODING 302
SWIDTH 216 0
DWIDTH 3 0
BBX 3 12 0 -2
BITMAP
60
60
60
60
60
60
60
60
60
60
40
E0
ENDCHAR
STARTCHAR 012F
ENCODING 303
SWIDTH 216 0
DWIDTH 3 0
BBX 3 12 0 -2
BITMAP
60
60
60
60
60
60
60
60
60
60
40
E0
ENDCHAR
STARTCHAR 0134
ENCODING 308
SWIDTH 504 0
DWIDTH 7 0
BBX 6 12 1 0
BITMAP
78
4C
7C
7C
1C
1C
1C
1C
1C
DC
FC
FC
ENDCHAR
STARTCHAR 0135
ENCODING 309
SWIDTH 504 0
DWIDTH 7 0
BBX 6 12 1 0
BITMAP
78
4C
7C
7C
1C
1C
1C
1C
1C
DC
FC
FC
ENDCHAR
STARTCHAR 0136
ENCODING 310
SWIDTH 504 0
DWIDTH 7 0
BBX 6 12 1 -2
BITMAP
CC
DC
DC
F8
F0
F0
F8
D8
DC
CC
00
20
ENDCHAR
STARTCHAR 0137
ENCODING 311
SWIDTH 504 0
DWIDTH 7 0
BBX 6 12 1 -2
BITMAP
CC
DC
DC
F8
F0
F0
F8
D8
DC
CC
00
20
ENDCHAR
STARTCHAR 0139
ENCODING 313
SWIDTH 360 0
DWIDTH 5 0
BBX 7 12 -1 0
BITMAP
38
C0
30
30
30
30
30
30
30
30
3E
3C
ENDCHAR
STARTCHAR 013A
ENCODING 314
SWIDTH 360 0
DWIDTH 5 0
BBX 7 12 -1 0
BITMAP
38
C0
30
30
30
30
30
30
30
30
3E
3C
ENDCHAR
STARTCHAR 013C
ENCODING 316
SWIDTH 360 0
DWIDTH 5 0
BBX 5 12 1 -2
BITMAP
C0
C0
C0
C0
C0
C0
C0
C0
F8
F0
20
40
ENDCHAR
STARTCHAR 013D
ENCODING 317
SWIDTH 360 0
DWIDTH 5 0
BBX 6 12 0 0
BITMAP
B0
60
60
60
60
60
60
60
60
60
7C
78
ENDCHAR
STARTCHAR 013E
ENCODING 318
SWIDTH 360 0
DWIDTH 5 0
BBX 6 12 0 0
BITMAP
B0
60
60
60
60
60
60
60
60
60
7C
78
ENDCHAR
STARTCHAR 0141
ENCODING 321
SWIDTH 504 0
DWIDTH 7 0
BBX 6 10 1 0
BITMAP
60
60
68
78
70
E0
60
60
7C
78
ENDCHAR
STARTCHAR 0142
ENCODING 322
SWIDTH 504 0
DWIDTH 7 0
BBX 6 10 1 0
BITMAP
60
60
68
78
70
E0
60
60
7C
78
ENDCHAR
STARTCHAR 0143
ENCODING 323
SWIDTH 504 0
DWIDTH 7 0
BBX 6 12 1 0
BITMAP
38
E0
4C
CC
EC
EC
FC
FC
DC
DC
CC
CC
ENDCHAR
STARTCHAR 0144
ENCODING 324
SWIDTH 504 0
DWIDTH 7 0
BBX 6 12 1 0
BITMAP
38
E0
4C
CC
EC
EC
FC
FC
DC
DC
CC
CC
ENDCHAR
STARTCHAR 0145
ENCODING 325
SWIDTH 504 0
DWIDTH 7 0
BBX 6 12 1 -2
BITMAP
4C
CC
EC
EC
FC
FC
DC
DC
CC
CC
10
10
ENDCHAR
STARTCHAR 0146
ENCODING 326
SWIDTH 504 0
DWIDTH 7 0
BBX 6 12 1 -2
BITMAP
4C
CC
EC
EC
FC
FC
DC
DC
CC
CC
10
10
ENDCHAR
STARTCHAR 0147
ENCODING 327
SWIDTH 504 0
DWIDTH 7 0
BBX 6 12 1 0
BITMAP
48
30
4C
CC
EC
EC
FC
FC
DC
DC
CC
CC
ENDCHAR
STARTCHAR 0148
ENCODING 328
SWIDTH 504 0
DWIDTH 7 0
BBX 6 12 1 0
BITMAP
48
30
4C
CC
EC
EC
FC
FC
DC
DC
CC
CC
ENDCHAR
STARTCHAR 014C
ENCODING 332
SWIDTH 576 0
DWIDTH 8 0
BBX 7 12 1 0
BITMAP
7C
7C
7C
FE
C6
C6
C6
C6
C6
C6
FE
FC
ENDCHAR
STARTCHAR 014D
ENCODING 333
SWIDTH 576 0
DWIDTH 8 0
BBX 7 12 1 0
BITMAP
7C
7C
7C
FE
C6
C6
C6
C6
C6
C6
FE
FC
ENDCHAR
STARTCHAR 0150
ENCODING 336
SWIDTH 576 0
DWIDTH 8 0
BBX 7 13 1 0
BITMAP
18
18
20
7C
FE
C6
C6
C6
C6
C6
C6
FE
FC
ENDCHAR
STARTCHAR 0151
ENCODING 337
SWIDTH 576 0
DWIDTH 8 0
BBX 7 13 1 0
BITMAP
18
18
20
7C
FE
C6
C6
C6
C6
C6
C6
FE
FC
ENDCHAR
STARTCHAR 0152
ENCODING 338
SWIDTH 792 0
DWIDTH 11 0
BBX 10 10 1 0
BITMAP
7F80
FFC0
CCC0
CC00
CF80
CF80
CC00
CC40
FFC0
FFC0
ENDCHAR
STARTCHAR 0153
ENCODING 339
SWIDTH 792 0
DWIDTH 11 0
BBX 10 10 1 0
BITMAP
7F80
FFC0
CCC0
CC00
CF80
CF80
CC00
CC40
FFC0
FFC0
ENDCHAR
STARTCHAR 0154
ENCODING 340
SWIDTH 504 0
DWIDTH 7 0
BBX 6 12 1 0
BITMAP
38
C0
F8
FC
CC
CC
FC
F8
D8
DC
CC
CC
ENDCHAR
STARTCHAR 0155
ENCODING 341
SWIDTH 504 0
DWIDTH 7 0
BBX 6 12 1 0
BITMAP
38
C0
F8
FC
CC
CC
FC
F8
D8
DC
CC
CC
ENDCHAR
STARTCHAR 0156
ENCODING 342
SWIDTH 504 0
DWIDTH 7 0
BBX 6 12 1 -2
BITMAP
F8
FC
CC
CC
FC
F8
D8
DC
CC
CC
00
20
ENDCHAR
STARTCHAR 0157
ENCODING 343
SWIDTH 504 0
DWIDTH 7 0
BBX 6 12 1 -2
BITMAP
F8
FC
CC
CC
FC
F8
D8
DC
CC
CC
00
20
ENDCHAR
STARTCHAR 0158
ENCODING 344
SWIDTH 504 0
DWIDTH 7 0
BBX 6 12 1 0
BITMAP
50
70
F8
FC
CC
CC
FC
F8
D8
DC
CC
CC
ENDCHAR
STARTCHAR 0159
ENCODING 345
SWIDTH 504 0
DWIDTH 7 0
BBX 6 12 1 0
BITMAP
50
70
F8
FC
CC
CC
FC
F8
D8
DC
CC
CC
ENDCHAR
STARTCHAR 015C
ENCODING 348
SWIDTH 504 0
DWIDTH 7 0
BBX 6 12 1 0
BITMAP
F8
88
F8
FC
CC
E0
70
38
1C
8C
FC
FC
ENDCHAR
STARTCHAR 015D
ENCODING 349
SWIDTH 504 0
DWIDTH 7 0
BBX 6 12 1 0
BITMAP
F8
88
F8
FC
CC
E0
70
38
1C
8C
FC
FC
ENDCHAR
STARTCHAR 015E
ENCODING 350
SWIDTH 504 0
DWIDTH 7 0
BBX 6 12 1 -2
BITMAP
F8
FC
CC
E0
70
38
1C
8C
FC
FC
30
30
ENDCHAR
STARTCHAR 015F
ENCODING 351
SWIDTH 504 0
DWIDTH 7 0
BBX 6 12 1 -2
BITMAP
F8
FC
CC
E0
70
38
1C
8C
FC
FC
30
30
ENDCHAR
STARTCHAR 0160
ENCODING 352
SWIDTH 504 0
DWIDTH 7 0
BBX 6 12 1 0
BITMAP
50
30
F8
FC
CC
E0
70
38
1C
8C
FC
FC
ENDCHAR
STARTCHAR 0161
ENCODING 353
SWIDTH 504 0
DWIDTH 7 0
BBX 6 12 1 0
BITMAP
50
30
F8
FC
CC
E0
70
38
1C
8C
FC
FC
ENDCHAR
STARTCHAR 0162
ENCODING 354
SWIDTH 504 0
DWIDTH 7 0
BBX 7 12 0 -2
BITMAP
7C
FE
DE
18
18
18
18
18
18
18
10
10
ENDCHAR
STARTCHAR 0163
ENCODING 355
SWIDTH 504 0
DWIDTH 7 0
BBX 7 12 0 -2
BITMAP
7C
FE
DE
18
18
18
18
18
18
18
10
10
ENDCHAR
STARTCHAR 0164
ENCODING 356
SWIDTH 504 0
DWIDTH 7 0
BBX 7 12 0 0
BITMAP
2C
18
7C
FE
DE
18
18
18
18
18
18
18
ENDCHAR
STARTCHAR 0165
ENCODING 357
SWIDTH 504 0
DWIDTH 7 0
BBX 7 12 0 0
BITMAP
2C
18
7C
FE
DE
18
18
18
18
18
18
18
ENDCHAR
STARTCHAR 0166
ENCODING 358
SWIDTH 504 0
DWIDTH 7 0
BBX 7 10 0 0
BITMAP
7C
FE
DE
18
18
7C
18
18
18
18
ENDCHAR
STARTCHAR 0167
ENCODING 359
SWIDTH 504 0
DWIDTH 7 0
BBX 7 10 0 0
BITMAP
7C
FE
DE
18
18
7C
18
18
18
18
ENDCHAR
STARTCHAR 0168
ENCODING 360
SWIDTH 576 0
DWIDTH 8 0
BBX 7 12 1 0
BITMAP
74
88
C6
C6
C6
C6
C6
C6
C6
C6
FE
FC
ENDCHAR
STARTCHAR 0169
ENCODING 361
SWIDTH 576 0
DWIDTH 8 0
BBX 7 12 1 0
BITMAP
74
88
C6
C6
C6
C6
C6
C6
C6
C6
FE
FC
ENDCHAR
STARTCHAR 016A
ENCODING 362
SWIDTH 576 0
DWIDTH 8 0
BBX 7 12 1 0
BITMAP
7C
7C
C6
C6
C6
C6
C6
C6
C6
C6
FE
FC
ENDCHAR
STARTCHAR 016B
ENCODING 363
SWIDTH 576 0
DWIDTH 8 0
BBX 7 12 1 0
BITMAP
7C
7C
C6
C6
C6
C6
C6
C6
C6
C6
FE
FC
ENDCHAR
STARTCHAR 016E
ENCODING 366
SWIDTH 576 0
DWIDTH 8 0
BBX 7 12 1 0
BITMAP
30
30
C6
C6
C6
C6
C6
C6
C6
C6
FE
FC
ENDCHAR
STARTCHAR 016F
ENCODING 367
SWIDTH 576 0
DWIDTH 8 0
BBX 7 12 1 0
BITMAP
30
30
C6
C6
C6
C6
C6
C6
C6
C6
FE
FC
ENDCHAR
STARTCHAR 0170
ENCODING 368
SWIDTH 576 0
DWIDTH 8 0
BBX 7 13 1 0
BITMAP
18
18
30
C6
C6
C6
C6
C6
C6
C6
C6
FE
FC
ENDCHAR
STARTCHAR 0171
ENCODING 369
SWIDTH 576 0
DWIDTH 8 0
BBX 7 13 1 0
BITMAP
18
18
30
C6
C6
C6
C6
C6
C6
C6
C6
FE
FC
ENDCHAR
STARTCHAR 0172
ENCODING 370
SWIDTH 576 0
DWIDTH 8 0
BBX 7 12 1 -2
BITMAP
C6
C6
C6
C6
C6
C6
C6
C6
FE
FC
20
30
ENDCHAR
STARTCHAR 0173
ENCODING 371
SWIDTH 576 0
DWIDTH 8 0
BBX 7 12 1 -2
BITMAP
C6
C6
C6
C6
C6
C6
C6
C6
FE
FC
20
30
ENDCHAR
STARTCHAR 0174
ENCODING 372
SWIDTH 864 0
DWIDTH 12 0
BBX 11 12 1 0
BITMAP
1E00
3100
C060
C0E0
C0C0
CCC0
CEC0
FEC0
7BC0
7B80
7380
7380
ENDCHAR
STARTCHAR 0175
ENCODING 373
SWIDTH 864 0
DWIDTH 12 0
BBX 11 12 1 0
BITMAP
1E00
3100
C060
C0E0
C0C0
CCC0
CEC0
FEC0
7BC0
7B80
7380
7380
ENDCHAR
STARTCHAR 0176
ENCODING 374
SWIDTH 432 0
DWIDTH 6 0
BBX 6 12 0 0
BITMAP
7C
C4
CC
CC
6C
7C
78
38
30
30
30
30
ENDCHAR
STARTCHAR 0177
ENCODING 375
SWIDTH 432 0
DWIDTH 6 0
BBX 6 12 0 0
BITMAP
7C
C4
CC
CC
6C
7C
78
38
30
30
30
30
ENDCHAR
STARTCHAR 0178
ENCODING 376
SWIDTH 432 0
DWIDTH 6 0
BBX 6 12 0 0
BITMAP
68
68
CC
CC
6C
7C
78
38
30
30
30
30
ENDCHAR
STARTCHAR 017B
ENCODING 379
SWIDTH 504 0
DWIDTH 7 0
BBX 6 12 1 0
BITMAP
30
30
F8
FC
1C
18
38
70
60
E0
FC
FC
ENDCHAR
STARTCHAR 017C
ENCODING 380
SWIDTH 504 0
DWIDTH 7 0
BBX 6 13 1 0
BITMAP
20
30
00
F8
FC
1C
18
38
70
60
E0
FC
FC
ENDCHAR
STARTCHAR 017D
ENCODING 381
SWIDTH 504 0
DWIDTH 7 0
BBX 6 12 1 0
BITMAP
48
30
F8
FC
1C
18
38
70
60
E0
FC
FC
ENDCHAR
STARTCHAR 017E
ENCODING 382
SWIDTH 504 0
DWIDTH 7 0
BBX 6 12 1 0
BITMAP
48
30
F8
FC
1C
18
38
70
60
E0
FC
FC
ENDCHAR
STARTCHAR 01A0
ENCODING 416
SWIDTH 576 0
DWIDTH 8 0
BBX 8 11 1 0
BITMAP
02
7F
FE
C6
C6
C6
C6
C6
C6
FE
FC
ENDCHAR
STARTCHAR 01A1
ENCODING 417
SWIDTH 576 0
DWIDTH 8 0
BBX 8 11 1 0
BITMAP
02
7F
FE
C6
C6
C6
C6
C6
C6
FE
FC
ENDCHAR
STARTCHAR 01AF
ENCODING 431
SWIDTH 576 0
DWIDTH 8 0
BBX 8 11 1 0
BITMAP
02
C7
C6
C6
C6
C6
C6
C6
C6
FE
FC
ENDCHAR
STARTCHAR 01B0
ENCODING 432
SWIDTH 576 0
DWIDTH 8 0
BBX 8 11 1 0
BITMAP
02
C7
C6
C6
C6
C6
C6
C6
C6
FE
FC
ENDCHAR
STARTCHAR 0218
ENCODING 536
SWIDTH 504 0
DWIDTH 7 0
BBX 6 12 1 -2
BITMAP
F8
FC
CC
E0
70
38
1C
8C
FC
FC
00
20
ENDCHAR
STARTCHAR 0219
ENCODING 537
SWIDTH 504 0
DWIDTH 7 0
BBX 6 12 1 -2
BITMAP
F8
FC
CC
E0
70
38
1C
8C
FC
FC
00
20
ENDCHAR
STARTCHAR 021A
ENCODING 538
SWIDTH 504 0
DWIDTH 7 0
BBX 7 12 0 -2
BITMAP
7C
FE
DE
18
18
18
18
18
18
18
10
10
ENDCHAR
STARTCHAR 021B
ENCODING 539
SWIDTH 504 0
DWIDTH 7 0
BBX 7 12 0 -2
BITMAP
7C
FE
DE
18
18
18
18
18
18
18
10
10
ENDCHAR
STARTCHAR 0259
ENCODING 601
SWIDTH 504 0
DWIDTH 7 0
BBX 6 10 1 0
BITMAP
7C
FC
CC
0C
EC
EC
EC
CC
FC
FC
ENDCHAR
STARTCHAR 02C6
ENCODING 710
SWIDTH 432 0
DWIDTH 6 0
BBX 6 2 0 10
BITMAP
78
C4
ENDCHAR
STARTCHAR 02C7
ENCODING 711
SWIDTH 288 0
DWIDTH 4 0
BBX 4 2 0 10
BITMAP
90
60
ENDCHAR
STARTCHAR 02D8
ENCODING 728
SWIDTH 432 0
DWIDTH 6 0
BBX 6 2 0 10
BITMAP
CC
78
ENDCHAR
STARTCHAR 02D9
ENCODING 729
SWIDTH 144 0
DWIDTH 2 0
BBX 2 2 0 11
BITMAP
40
C0
ENDCHAR
STARTCHAR 02DA
ENCODING 730
SWIDTH 144 0
DWIDTH 2 0
BBX 2 2 0 10
BITMAP
C0
C0
ENDCHAR
STARTCHAR 02DB
ENCODING 731
SWIDTH 216 0
DWIDTH 3 0
BBX 3 2 0 -2
BITMAP
40
E0
ENDCHAR
STARTCHAR 02DC
ENCODING 732
SWIDTH 432 0
DWIDTH 6 0
BBX 6 2 0 10
BITMAP
74
88
ENDCHAR
STARTCHAR 02DD
ENCODING 733
SWIDTH 216 0
DWIDTH 3 0
BBX 3 3 0 10
BITMAP
60
60
A0
ENDCHAR
STARTCHAR 1E20
ENCODING 7712
SWIDTH 504 0
DWIDTH 7 0
BBX 6 12 1 0
BITMAP
F8
F8
F8
FC
CC
C0
DC
DC
DC
CC
FC
FC
ENDCHAR
STARTCHAR 1E3E
ENCODING 7742
SWIDTH 648 0
DWIDTH 9 0
BBX 8 12 1 0
BITMAP
1C
70
66
EF
EF
EF
FB
FB
DB
DB
C3
C3
ENDCHAR
STARTCHAR 1E3F
ENCODING 7743
SWIDTH 648 0
DWIDTH 9 0
BBX 8 12 1 0
BITMAP
1C
70
66
EF
EF
EF
FB
FB
DB
DB
C3
C3
ENDCHAR
STARTCHAR 1E44
ENCODING 7748
SWIDTH 504 0
DWIDTH 7 0
BBX 6 12 1 0
BITMAP
30
30
4C
CC
EC
EC
FC
FC
DC
DC
CC
CC
ENDCHAR
STARTCHAR 1E45
ENCODING 7749
SWIDTH 504 0
DWIDTH 7 0
BBX 6 12 1 0
BITMAP
30
30
4C
CC
EC
EC
FC
FC
DC
DC
CC
CC
ENDCHAR
STARTCHAR 1E80
ENCODING 7808
SWIDTH 864 0
DWIDTH 12 0
BBX 11 12 1 0
BITMAP
1800
0F00
C060
C0E0
C0C0
CCC0
CEC0
FEC0
7BC0
7B80
7380
7380
ENDCHAR
STARTCHAR 1E81
ENCODING 7809
SWIDTH 864 0
DWIDTH 12 0
BBX 11 12 1 0
BITMAP
1800
0F00
C060
C0E0
C0C0
CCC0
CEC0
FEC0
7BC0
7B80
7380
7380
ENDCHAR
STARTCHAR 1E82
ENCODING 7810
SWIDTH 864 0
DWIDTH 12 0
BBX 11 12 1 0
BITMAP
0700
1800
C060
C0E0
C0C0
CCC0
CEC0
FEC0
7BC0
7B80
7380
7380
ENDCHAR
STARTCHAR 1E83
ENCODING 7811
SWIDTH 864 0
DWIDTH 12 0
BBX 11 12 1 0
BITMAP
0700
1800
C060
C0E0
C0C0
CCC0
CEC0
FEC0
7BC0
7B80
7380
7380
ENDCHAR
STARTCHAR 1E84
ENCODING 7812
SWIDTH 864 0
DWIDTH 12 0
BBX 11 12 1 0
BITMAP
1A00
1A00
C060
C0E0
C0C0
CCC0
CEC0
FEC0
7BC0
7B80
7380
7380
ENDCHAR
STARTCHAR 1E85
ENCODING 7813
SWIDTH 864 0
DWIDTH 12 0
BBX 11 12 1 0
BITMAP
1A00
1A00
C060
C0E0
C0C0
CCC0
CEC0
FEC0
7BC0
7B80
7380
7380
ENDCHAR
STARTCHAR 1EA0
ENCODING 7840
SWIDTH 576 0
DWIDTH 8 0
BBX 8 11 0 -1
BITMAP
3C
3C
26
66
66
66
66
7F
E3
C3
08
ENDCHAR
STARTCHAR 1EA1
ENCODING 7841
SWIDTH 576 0
DWIDTH 8 0
BBX 8 11 0 -1
BITMAP
3C
3C
26
66
66
66
66
7F
E3
C3
08
ENDCHAR
STARTCHAR 1EA2
ENCODING 7842
SWIDTH 576 0
DWIDTH 8 0
BBX 8 13 0 0
BITMAP
18
18
08
3C
3C
26
66
66
66
66
7F
E3
C3
ENDCHAR
STARTCHAR 1EA3
ENCODING 7843
SWIDTH 576 0
DWIDTH 8 0
BBX 8 13 0 0
BITMAP
18
18
08
3C
3C
26
66
66
66
66
7F
E3
C3
ENDCHAR
STARTCHAR 1EA4
ENCODING 7844
SWIDTH 576 0
DWIDTH 8 0
BBX 8 14 0 0
BITMAP
3C
40
3C
42
3C
3C
26
66
66
66
66
7F
E3
C3
ENDCHAR
STARTCHAR 1EA5
ENCODING 7845
SWIDTH 576 0
DWIDTH 8 0
BBX 8 14 0 0
BITMAP
3C
40
3C
42
3C
3C
26
66
66
66
66
7F
E3
C3
ENDCHAR
STARTCHAR 1EA6
ENCODING 7846
SWIDTH 576 0
DWIDTH 8 0
BBX 8 14 0 0
BITMAP
78
04
3C
42
3C
3C
26
66
66
66
66
7F
E3
C3
ENDCHAR
STARTCHAR 1EA7
ENCODING 7847
SWIDTH 576 0
DWIDTH 8 0
BBX 8 14 0 0
BITMAP
78
04
3C
42
3C
3C
26
66
66
66
66
7F
E3
C3
ENDCHAR
STARTCHAR 1EA8
ENCODING 7848
SWIDTH 576 0
DWIDTH 8 0
BBX 8 15 0 0
BITMAP
18
08
08
3C
42
3C
3C
26
66
66
66
66
7F
E3
C3
ENDCHAR
STARTCHAR 1EA9
ENCODING 7849
SWIDTH 576 0
DWIDTH 8 0
BBX 8 15 0 0
BITMAP
18
08
08
3C
42
3C
3C
26
66
66
66
66
7F
E3
C3
ENDCHAR
STARTCHAR 1EAA
ENCODING 7850
SWIDTH 576 0
DWIDTH 8 0
BBX 8 14 0 0
BITMAP
7E
40
3C
42
3C
3C
26
66
66
66
66
7F
E3
C3
ENDCHAR
STARTCHAR 1EAB
ENCODING 7851
SWIDTH 576 0
DWIDTH 8 0
BBX 8 14 0 0
BITMAP
7E
40
3C
42
3C
3C
26
66
66
66
66
7F
E3
C3
ENDCHAR
STARTCHAR 1EAC
ENCODING 7852
SWIDTH 576 0
DWIDTH 8 0
BBX 8 13 0 -1
BITMAP
3C
42
3C
3C
26
66
66
66
66
7F
E3
C3
08
ENDCHAR
STARTCHAR 1EAD
ENCODING 7853
SWIDTH 576 0
DWIDTH 8 0
BBX 8 14 0 -2
BITMAP
3C
42
3C
3C
26
66
66
66
66
7F
E3
C3
00
18
ENDCHAR
STARTCHAR 1EAE
ENCODING 7854
SWIDTH 576 0
DWIDTH 8 0
BBX 8 14 0 0
BITMAP
3C
40
66
3C
3C
3C
26
66
66
66
66
7F
E3
C3
ENDCHAR
STARTCHAR 1EAF
ENCODING 7855
SWIDTH 576 0
DWIDTH 8 0
BBX 8 14 0 0
BITMAP
3C
40
66
3C
3C
3C
26
66
66
66
66
7F
E3
C3
ENDCHAR
STARTCHAR 1EB0
ENCODING 7856
SWIDTH 576 0
DWIDTH 8 0
BBX 8 14 0 0
BITMAP
78
04
66
3C
3C
3C
26
66
66
66
66
7F
E3
C3
ENDCHAR
STARTCHAR 1EB1
ENCODING 7857
SWIDTH 576 0
DWIDTH 8 0
BBX 8 14 0 0
BITMAP
78
04
66
3C
3C
3C
26
66
66
66
66
7F
E3
C3
ENDCHAR
STARTCHAR 1EB2
ENCODING 7858
SWIDTH 576 0
DWIDTH 8 0
BBX 8 14 0 0
BITMAP
18
08
66
3C
3C
3C
26
66
66
66
66
7F
E3
C3
ENDCHAR
STARTCHAR 1EB3
ENCODING 7859
SWIDTH 576 0
DWIDTH 8 0
BBX 8 14 0 0
BITMAP
18
08
66
3C
3C
3C
26
66
66
66
66
7F
E3
C3
ENDCHAR
STARTCHAR 1EB4
ENCODING 7860
SWIDTH 576 0
DWIDTH 8 0
BBX 8 14 0 0
BITMAP
7E
40
66
3C
3C
3C
26
66
66
66
66
7F
E3
C3
ENDCHAR
STARTCHAR 1EB5
ENCODING 7861
SWIDTH 576 0
DWIDTH 8 0
BBX 8 14 0 0
BITMAP
7E
40
66
3C
3C
3C
26
66
66
66
66
7F
E3
C3
ENDCHAR
STARTCHAR 1EB6
ENCODING 7862
SWIDTH 576 0
DWIDTH 8 0
BBX 8 13 0 -1
BITMAP
66
3C
3C
3C
26
66
66
66
66
7F
E3
C3
08
ENDCHAR
STARTCHAR 1EB7
ENCODING 7863
SWIDTH 576 0
DWIDTH 8 0
BBX 8 14 0 -2
BITMAP
66
3C
3C
3C
26
66
66
66
66
7F
E3
C3
00
18
ENDCHAR
STARTCHAR 1EB8
ENCODING 7864
SWIDTH 504 0
DWIDTH 7 0
BBX 6 12 1 -2
BITMAP
F8
FC
CC
C0
F0
F0
C0
CC
FC
F8
00
70
ENDCHAR
STARTCHAR 1EB9
ENCODING 7865
SWIDTH 504 0
DWIDTH 7 0
BBX 6 12 1 -2
BITMAP
F8
FC
CC
C0
F0
F0
C0
CC
FC
F8
00
70
ENDCHAR
STARTCHAR 1EBA
ENCODING 7866
SWIDTH 504 0
DWIDTH 7 0
BBX 6 13 1 0
BITMAP
20
50
20
F8
FC
CC
C0
F0
F0
C0
CC
FC
F8
ENDCHAR
STARTCHAR 1EBB
ENCODING 7867
SWIDTH 504 0
DWIDTH 7 0
BBX 6 13 1 0
BITMAP
20
50
20
F8
FC
CC
C0
F0
F0
C0
CC
FC
F8
ENDCHAR
STARTCHAR 1EBC
ENCODING 7868
SWIDTH 504 0
DWIDTH 7 0
BBX 6 12 1 0
BITMAP
E8
18
F8
FC
CC
C0
F0
F0
C0
CC
FC
F8
ENDCHAR
STARTCHAR 1EBD
ENCODING 7869
SWIDTH 504 0
DWIDTH 7 0
BBX 6 12 1 0
BITMAP
E8
18
F8
FC
CC
C0
F0
F0
C0
CC
FC
F8
ENDCHAR
STARTCHAR 1EBE
ENCODING 7870
SWIDTH 504 0
DWIDTH 7 0
BBX 6 14 1 0
BITMAP
F8
80
F8
88
F8
FC
CC
C0
F0
F0
C0
CC
FC
F8
ENDCHAR
STARTCHAR 1EBF
ENCODING 7871
SWIDTH 504 0
DWIDTH 7 0
BBX 6 14 1 0
BITMAP
F8
80
F8
88
F8
FC
CC
C0
F0
F0
C0
CC
FC
F8
ENDCHAR
STARTCHAR 1EC0
ENCODING 7872
SWIDTH 504 0
DWIDTH 7 0
BBX 6 14 1 0
BITMAP
E0
18
F8
88
F8
FC
CC
C0
F0
F0
C0
CC
FC
F8
ENDCHAR
STARTCHAR 1EC1
ENCODING 7873
SWIDTH 504 0
DWIDTH 7 0
BBX 6 14 1 0
BITMAP
E0
18
F8
88
F8
FC
CC
C0
F0
F0
C0
CC
FC
F8
ENDCHAR
STARTCHAR 1EC2
ENCODING 7874
SWIDTH 504 0
DWIDTH 7 0
BBX 6 15 1 0
BITMAP
70
20
20
F8
88
F8
FC
CC
C0
F0
F0
C0
CC
FC
F8
ENDCHAR
STARTCHAR 1EC3
ENCODING 7875
SWIDTH 504 0
DWIDTH 7 0
BBX 6 15 1 0
BITMAP
70
20
20
F8
88
F8
FC
CC
C0
F0
F0
C0
CC
FC
F8
ENDCHAR
STARTCHAR 1EC4
ENCODING 7876
SWIDTH 504 0
DWIDTH 7 0
BBX 6 14 1 0
BITMAP
F8
00
F8
88
F8
FC
CC
C0
F0
F0
C0
CC
FC
F8
ENDCHAR
STARTCHAR 1EC5
ENCODING 7877
SWIDTH 504 0
DWIDTH 7 0
BBX 6 14 1 0
BITMAP
F8
00
F8
88
F8
FC
CC
C0
F0
F0
C0
CC
FC
F8
ENDCHAR
STARTCHAR 1EC6
ENCODING 7878
SWIDTH 504 0
DWIDTH 7 0
BBX 6 14 1 -2
BITMAP
F8
88
F8
FC
CC
C0
F0
F0
C0
CC
FC
F8
00
70
ENDCHAR
STARTCHAR 1EC7
ENCODING 7879
SWIDTH 504 0
DWIDTH 7 0
BBX 6 14 1 -2
BITMAP
F8
88
F8
FC
CC
C0
F0
F0
C0
CC
FC
F8
00
70
ENDCHAR
STARTCHAR 1EC8
ENCODING 7880
SWIDTH 216 0
DWIDTH 3 0
BBX 3 13 0 0
BITMAP
60
A0
40
60
60
60
60
60
60
60
60
60
60
ENDCHAR
STARTCHAR 1EC9
ENCODING 7881
SWIDTH 216 0
DWIDTH 3 0
BBX 3 13 0 0
BITMAP
60
A0
40
60
60
60
60
60
60
60
60
60
60
ENDCHAR
STARTCHAR 1ECA
ENCODING 7882
SWIDTH 216 0
DWIDTH 3 0
BBX 2 12 1 -2
BITMAP
C0
C0
C0
C0
C0
C0
C0
C0
C0
C0
00
C0
ENDCHAR
STARTCHAR 1ECB
ENCODING 7883
SWIDTH 216 0
DWIDTH 3 0
BBX 2 12 1 -2
BITMAP
C0
C0
C0
C0
C0
C0
C0
C0
C0
C0
00
C0
ENDCHAR
STARTCHAR 1ECC
ENCODING 7884
SWIDTH 576 0
DWIDTH 8 0
BBX 7 12 1 -2
BITMAP
7C
FE
C6
C6
C6
C6
C6
C6
FE
FC
00
38
ENDCHAR
STARTCHAR 1ECD
ENCODING 7885
SWIDTH 576 0
DWIDTH 8 0
BBX 7 12 1 -2
BITMAP
7C
FE
C6
C6
C6
C6
C6
C6
FE
FC
00
38
ENDCHAR
STARTCHAR 1ECE
ENCODING 7886
SWIDTH 576 0
DWIDTH 8 0
BBX 7 13 1 0
BITMAP
10
28
10
7C
FE
C6
C6
C6
C6
C6
C6
FE
FC
ENDCHAR
STARTCHAR 1ECF
ENCODING 7887
SWIDTH 576 0
DWIDTH 8 0
BBX 7 13 1 0
BITMAP
10
28
10
7C
FE
C6
C6
C6
C6
C6
C6
FE
FC
ENDCHAR
STARTCHAR 1ED0
ENCODING 7888
SWIDTH 576 0
DWIDTH 8 0
BBX 7 14 1 0
BITMAP
7C
40
7C
C4
7C
FE
C6
C6
C6
C6
C6
C6
FE
FC
ENDCHAR
STARTCHAR 1ED1
ENCODING 7889
SWIDTH 576 0
DWIDTH 8 0
BBX 7 14 1 0
BITMAP
7C
40
7C
C4
7C
FE
C6
C6
C6
C6
C6
C6
FE
FC
ENDCHAR
STARTCHAR 1ED2
ENCODING 7890
SWIDTH 576 0
DWIDTH 8 0
BBX 7 14 1 0
BITMAP
70
08
7C
C4
7C
FE
C6
C6
C6
C6
C6
C6
FE
FC
ENDCHAR
STARTCHAR 1ED3
ENCODING 7891
SWIDTH 576 0
DWIDTH 8 0
BBX 7 14 1 0
BITMAP
70
08
7C
C4
7C
FE
C6
C6
C6
C6
C6
C6
FE
FC
ENDCHAR
STARTCHAR 1ED4
ENCODING 7892
SWIDTH 576 0
DWIDTH 8 0
BBX 7 15 1 0
BITMAP
38
10
10
7C
C4
7C
FE
C6
C6
C6
C6
C6
C6
FE
FC
ENDCHAR
STARTCHAR 1ED5
ENCODING 7893
SWIDTH 576 0
DWIDTH 8 0
BBX 7 15 1 0
BITMAP
38
10
10
7C
C4
7C
FE
C6
C6
C6
C6
C6
C6
FE
FC
ENDCHAR
STARTCHAR 1ED6
ENCODING 7894
SWIDTH 576 0
DWIDTH 8 0
BBX 7 14 1 0
BITMAP
7C
80
7C
C4
7C
FE
C6
C6
C6
C6
C6
C6
FE
FC
ENDCHAR
STARTCHAR 1ED7
ENCODING 7895
SWIDTH 576 0
DWIDTH 8 0
BBX 7 14 1 0
BITMAP
7C
80
7C
C4
7C
FE
C6
C6
C6
C6
C6
C6
FE
FC
ENDCHAR
STARTCHAR 1ED8
ENCODING 7896
SWIDTH 576 0
DWIDTH 8 0
BBX 7 14 1 -2
BITMAP
7C
C4
7C
FE
C6
C6
C6
C6
C6
C6
FE
FC
00
38
ENDCHAR
STARTCHAR 1ED9
ENCODING 7897
SWIDTH 576 0
DWIDTH 8 0
BBX 7 14 1 -2
BITMAP
7C
C4
7C
FE
C6
C6
C6
C6
C6
C6
FE
FC
00
38
ENDCHAR
STARTCHAR 1EDA
ENCODING 7898
SWIDTH 576 0
DWIDTH 8 0
BBX 8 12 1 0
BITMAP
1C
62
7F
FE
C6
C6
C6
C6
C6
C6
FE
FC
ENDCHAR
STARTCHAR 1EDB
ENCODING 7899
SWIDTH 576 0
DWIDTH 8 0
BBX 8 12 1 0
BITMAP
1C
62
7F
FE
C6
C6
C6
C6
C6
C6
FE
FC
ENDCHAR
STARTCHAR 1EDC
ENCODING 7900
SWIDTH 576 0
DWIDTH 8 0
BBX 8 12 1 0
BITMAP
40
3E
7F
FE
C6
C6
C6
C6
C6
C6
FE
FC
ENDCHAR
STARTCHAR 1EDD
ENCODING 7901
SWIDTH 576 0
DWIDTH 8 0
BBX 8 12 1 0
BITMAP
40
3E
7F
FE
C6
C6
C6
C6
C6
C6
FE
FC
ENDCHAR
STARTCHAR 1EDE
ENCODING 7902
SWIDTH 576 0
DWIDTH 8 0
BBX 8 13 1 0
BITMAP
10
28
12
7F
FE
C6
C6
C6
C6
C6
C6
FE
FC
ENDCHAR
STARTCHAR 1EDF
ENCODING 7903
SWIDTH 576 0
DWIDTH 8 0
BBX 8 13 1 0
BITMAP
10
28
12
7F
FE
C6
C6
C6
C6
C6
C6
FE
FC
ENDCHAR
STARTCHAR 1EE0
ENCODING 7904
SWIDTH 576 0
DWIDTH 8 0
BBX 8 13 1 0
BITMAP
20
DC
02
7F
FE
C6
C6
C6
C6
C6
C6
FE
FC
ENDCHAR
STARTCHAR 1EE1
ENCODING 7905
SWIDTH 576 0
DWIDTH 8 0
BBX 8 13 1 0
BITMAP
20
DC
02
7F
FE
C6
C6
C6
C6
C6
C6
FE
FC
ENDCHAR
STARTCHAR 1EE2
ENCODING 7906
SWIDTH 576 0
DWIDTH 8 0
BBX 8 13 1 -2
BITMAP
02
7F
FE
C6
C6
C6
C6
C6
C6
FE
FC
00
38
ENDCHAR
STARTCHAR 1EE3
ENCODING 7907
SWIDTH 576 0
DWIDTH 8 0
BBX 8 13 1 -2
BITMAP
02
7F
FE
C6
C6
C6
C6
C6
C6
FE
FC
00
38
ENDCHAR
STARTCHAR 1EE4
ENCODING 7908
SWIDTH 576 0
DWIDTH 8 0
BBX 7 12 1 -2
BITMAP
C6
C6
C6
C6
C6
C6
C6
C6
FE
FC
00
30
ENDCHAR
STARTCHAR 1EE5
ENCODING 7909
SWIDTH 576 0
DWIDTH 8 0
BBX 7 12 1 -2
BITMAP
C6
C6
C6
C6
C6
C6
C6
C6
FE
FC
00
30
ENDCHAR
STARTCHAR 1EE6
ENCODING 7910
SWIDTH 576 0
DWIDTH 8 0
BBX 7 13 1 0
BITMAP
30
30
10
C6
C6
C6
C6
C6
C6
C6
C6
FE
FC
ENDCHAR
STARTCHAR 1EE7
ENCODING 7911
SWIDTH 576 0
DWIDTH 8 0
BBX 7 13 1 0
BITMAP
30
30
10
C6
C6
C6
C6
C6
C6
C6
C6
FE
FC
ENDCHAR
STARTCHAR 1EE8
ENCODING 7912
SWIDTH 576 0
DWIDTH 8 0
BBX 8 12 1 0
BITMAP
1C
62
C7
C6
C6
C6
C6
C6
C6
C6
FE
FC
ENDCHAR
STARTCHAR 1EE9
ENCODING 7913
SWIDTH 576 0
DWIDTH 8 0
BBX 8 12 1 0
BITMAP
1C
62
C7
C6
C6
C6
C6
C6
C6
C6
FE
FC
ENDCHAR
STARTCHAR 1EEA
ENCODING 7914
SWIDTH 576 0
DWIDTH 8 0
BBX 8 12 1 0
BITMAP
40
3E
C7
C6
C6
C6
C6
C6
C6
C6
FE
FC
ENDCHAR
STARTCHAR 1EEB
ENCODING 7915
SWIDTH 576 0
DWIDTH 8 0
BBX 8 12 1 0
BITMAP
40
3E
C7
C6
C6
C6
C6
C6
C6
C6
FE
FC
ENDCHAR
STARTCHAR 1EEC
ENCODING 7916
SWIDTH 576 0
DWIDTH 8 0
BBX 8 13 1 0
BITMAP
30
30
12
C7
C6
C6
C6
C6
C6
C6
C6
FE
FC
ENDCHAR
STARTCHAR 1EED
ENCODING 7917
SWIDTH 576 0
DWIDTH 8 0
BBX 8 13 1 0
BITMAP
30
30
12
C7
C6
C6
C6
C6
C6
C6
C6
FE
FC
ENDCHAR
STARTCHAR 1EEE
ENCODING 7918
SWIDTH 576 0
DWIDTH 8 0
BBX 8 13 1 0
BITMAP
20
DC
02
C7
C6
C6
C6
C6
C6
C6
C6
FE
FC
ENDCHAR
STARTCHAR 1EEF
ENCODING 7919
SWIDTH 576 0
DWIDTH 8 0
BBX 8 13 1 0
BITMAP
20
DC
02
C7
C6
C6
C6
C6
C6
C6
C6
FE
FC
ENDCHAR
STARTCHAR 1EF0
ENCODING 7920
SWIDTH 576 0
DWIDTH 8 0
BBX 8 13 1 -2
BITMAP
02
C7
C6
C6
C6
C6
C6
C6
C6
FE
FC
00
30
ENDCHAR
STARTCHAR 1EF1
ENCODING 7921
SWIDTH 576 0
DWIDTH 8 0
BBX 8 13 1 -2
BITMAP
02
C7
C6
C6
C6
C6
C6
C6
C6
FE
FC
00
30
ENDCHAR
STARTCHAR 1EF2
ENCODING 7922
SWIDTH 432 0
DWIDTH 6 0
BBX 6 12 0 0
BITMAP
60
3C
CC
CC
6C
7C
78
38
30
30
30
30
ENDCHAR
STARTCHAR 1EF3
ENCODING 7923
SWIDTH 432 0
DWIDTH 6 0
BBX 6 12 0 0
BITMAP
60
3C
CC
CC
6C
7C
78
38
30
30
30
30
ENDCHAR
STARTCHAR 1EF4
ENCODING 7924
SWIDTH 432 0
DWIDTH 6 0
BBX 6 12 0 -2
BITMAP
CC
CC
6C
7C
78
38
30
30
30
30
00
30
ENDCHAR
STARTCHAR 1EF5
ENCODING 7925
SWIDTH 432 0
DWIDTH 6 0
BBX 6 12 0 -2
BITMAP
CC
CC
6C
7C
78
38
30
30
30
30
00
30
ENDCHAR
STARTCHAR 1EF6
ENCODING 7926
SWIDTH 432 0
DWIDTH 6 0
BBX 6 13 0 0
BITMAP
30
30
10
CC
CC
6C
7C
78
38
30
30
30
30
ENDCHAR
STARTCHAR 1EF7
ENCODING 7927
SWIDTH 432 0
DWIDTH 6 0
BBX 6 13 0 0
BITMAP
30
30
10
CC
CC
6C
7C
78
38
30
30
30
30
ENDCHAR
STARTCHAR 1EF8
ENCODING 7928
SWIDTH 432 0
DWIDTH 6 0
BBX 6 12 0 1
BITMAP
FC
00
CC
CC
6C
7C
78
38
30
30
30
30
ENDCHAR
STARTCHAR 1EF9
ENCODING 7929
SWIDTH 432 0
DWIDTH 6 0
BBX 6 12 0 1
BITMAP
FC
00
CC
CC
6C
7C
78
38
30
30
30
30
ENDCHAR
STARTCHAR 2013
ENCODING 8211
SWIDTH 432 0
DWIDTH 6 0
BBX 7 1 0 4
BITMAP
FE
ENDCHAR
STARTCHAR 2014
ENCODING 8212
SWIDTH 936 0
DWIDTH 13 0
BBX 14 1 0 4
BITMAP
FFFC
ENDCHAR
STARTCHAR 2018
ENCODING 8216
SWIDTH 144 0
DWIDTH 2 0
BBX 3 4 0 6
BITMAP
60
40
C0
40
ENDCHAR
STARTCHAR 2019
ENCODING 8217
SWIDTH 144 0
DWIDTH 2 0
BBX 3 4 0 6
BITMAP
60
60
40
C0
ENDCHAR
STARTCHAR 201A
ENCODING 8218
SWIDTH 144 0
DWIDTH 2 0
BBX 2 3 0 -1
BITMAP
40
40
C0
ENDCHAR
STARTCHAR 201C
ENCODING 8220
SWIDTH 360 0
DWIDTH 5 0
BBX 5 4 0 6
BITMAP
78
50
F0
50
ENDCHAR
STARTCHAR 201D
ENCODING 8221
SWIDTH 360 0
DWIDTH 5 0
BBX 5 4 0 6
BITMAP
78
78
58
F0
ENDCHAR
STARTCHAR 201E
ENCODING 8222
SWIDTH 360 0
DWIDTH 5 0
BBX 4 3 1 -1
BITMAP
F0
F0
A0
ENDCHAR
STARTCHAR 2020
ENCODING 8224
SWIDTH 504 0
DWIDTH 7 0
BBX 7 10 0 0
BITMAP
10
10
10
FE
10
10
10
10
10
10
ENDCHAR
STARTCHAR 2021
ENCODING 8225
SWIDTH 504 0
DWIDTH 7 0
BBX 7 10 0 0
BITMAP
10
10
10
FE
10
10
FE
10
10
10
ENDCHAR
STARTCHAR 2022
ENCODING 8226
SWIDTH 216 0
DWIDTH 3 0
BBX 3 3 0 4
BITMAP
E0
E0
E0
ENDCHAR
STARTCHAR 2026
ENCODING 8230
SWIDTH 504 0
DWIDTH 7 0
BBX 7 2 0 0
BITMAP
D6
D6
ENDCHAR
STARTCHAR 2030
ENCODING 8240
SWIDTH 864 0
DWIDTH 12 0
BBX 11 10 1 0
BITMAP
E400
AC00
E800
F800
1000
3000
2000
6FE0
4BA0
CFE0
ENDCHAR
STARTCHAR 2039
ENCODING 8249
SWIDTH 216 0
DWIDTH 3 0
BBX 3 5 0 2
BITMAP
20
60
C0
60
20
ENDCHAR
STARTCHAR 203A
ENCODING 8250
SWIDTH 216 0
DWIDTH 3 0
BBX 3 5 0 2
BITMAP
C0
60
20
60
80
ENDCHAR
STARTCHAR 2044
ENCODING 8260
SWIDTH 288 0
DWIDTH 4 0
BBX 5 10 0 0
BITMAP
08
08
10
10
20
20
40
40
C0
80
ENDCHAR
STARTCHAR 20AB
ENCODING 8363
SWIDTH 432 0
DWIDTH 6 0
BBX 6 10 0 0
BITMAP
F8
FC
CC
CC
EC
CC
FC
FC
00
FC
ENDCHAR
STARTCHAR 20AC
ENCODING 8364
SWIDTH 576 0
DWIDTH 8 0
BBX 7 10 1 0
BITMAP
FC
FE
E6
F0
F0
F0
F0
E6
FE
FC
ENDCHAR
STARTCHAR 2122
ENCODING 8482
SWIDTH 576 0
DWIDTH 8 0
BBX 8 5 0 5
BITMAP
EF
DF
4F
4F
49
ENDCHAR
STARTCHAR 215B
ENCODING 8539
SWIDTH 648 0
DWIDTH 9 0
BBX 8 10 1 0
BITMAP
C4
C8
48
50
50
2E
2B
6E
4B
CE
ENDCHAR
STARTCHAR 215C
ENCODING 8540
SWIDTH 648 0
DWIDTH 9 0
BBX 8 10 1 0
BITMAP
E6
24
EC
28
F8
17
35
27
25
47
ENDCHAR
STARTCHAR 215D
ENCODING 8541
SWIDTH 648 0
DWIDTH 9 0
BBX 8 10 1 0
BITMAP
E6
84
EC
28
F8
17
35
27
25
47
ENDCHAR
STARTCHAR 215E
ENCODING 8542
SWIDTH 648 0
DWIDTH 9 0
BBX 7 10 1 0
BITMAP
CC
48
58
50
D0
2E
2A
4E
4A
8E
ENDCHAR
STARTCHAR 2190
ENCODING 8592
SWIDTH 360 0
DWIDTH 5 0
BBX 6 4 0 2
BITMAP
60
FC
FC
60
ENDCHAR
STARTCHAR 2191
ENCODING 8593
SWIDTH 360 0
DWIDTH 5 0
BBX 5 5 0 2
BITMAP
70
F8
A8
20
20
ENDCHAR
STARTCHAR 2192
ENCODING 8594
SWIDTH 360 0
DWIDTH 5 0
BBX 6 4 0 2
BITMAP
18
FC
FC
18
ENDCHAR
STARTCHAR 2193
ENCODING 8595
SWIDTH 360 0
DWIDTH 5 0
BBX 5 5 0 2
BITMAP
20
20
20
E8
70
ENDCHAR
STARTCHAR 2194
ENCODING 8596
SWIDTH 504 0
DWIDTH 7 0
BBX 7 4 0 2
BITMAP
64
FE
FE
64
ENDCHAR
STARTCHAR 2195
ENCODING 8597
SWIDTH 360 0
DWIDTH 5 0
BBX 5 6 0 2
BITMAP
70
E8
20
20
E8
70
ENDCHAR
STARTCHAR 2196
ENCODING 8598
SWIDTH 360 0
DWIDTH 5 0
BBX 5 4 0 2
BITMAP
70
E0
F0
18
ENDCHAR
STARTCHAR 2197
ENCODING 8599
SWIDTH 360 0
DWIDTH 5 0
BBX 5 4 0 2
BITMAP
38
38
68
C8
ENDCHAR
STARTCHAR 2198
ENCODING 8600
SWIDTH 360 0
DWIDTH 5 0
BBX 5 4 0 2
BITMAP
C8
68
38
38
ENDCHAR
STARTCHAR 2199
ENCODING 8601
SWIDTH 360 0
DWIDTH 5 0
BBX 5 4 0 2
BITMAP
18
F0
E0
70
ENDCHAR
STARTCHAR 220F
ENCODING 8719
SWIDTH 432 0
DWIDTH 6 0
BBX 7 10 0 0
BITMAP
FE
FE
28
28
28
28
28
28
28
28
ENDCHAR
STARTCHAR 2211
ENCODING 8721
SWIDTH 360 0
DWIDTH 5 0
BBX 5 10 0 0
BITMAP
F8
F8
40
60
20
30
60
40
C0
F8
ENDCHAR
STARTCHAR 2212
ENCODING 8722
SWIDTH 360 0
DWIDTH 5 0
BBX 6 2 0 4
BITMAP
FC
FC
ENDCHAR
STARTCHAR 221A
ENCODING 8730
SWIDTH 504 0
DWIDTH 7 0
BBX 11 13 0 0
BITMAP
03E0
03E0
0200
0200
0600
0600
0400
0400
E400
2400
3400
1C00
1C00
ENDCHAR
STARTCHAR 2260
ENCODING 8800
SWIDTH 360 0
DWIDTH 5 0
BBX 6 6 0 2
BITMAP
10
10
FC
30
FC
20
ENDCHAR
STARTCHAR 2264
ENCODING 8804
SWIDTH 360 0
DWIDTH 5 0
BBX 5 9 0 1
BITMAP
18
70
C0
C0
70
18
08
00
F8
ENDCHAR
STARTCHAR 2265
ENCODING 8805
SWIDTH 360 0
DWIDTH 5 0
BBX 5 10 0 0
BITMAP
80
E0
70
18
18
78
E0
80
00
F8
ENDCHAR
ENDFONT
